<?xml version="1.0" encoding="UTF-8"?>
<svg width="23px" height="23px" viewBox="0 0 23 23" version="1.1" xmlns="http://www.w3.org/2000/svg" xmlns:xlink="http://www.w3.org/1999/xlink">
    <!-- Generator: Sketch 52.6 (67491) - http://www.bohemiancoding.com/sketch -->
    <title>copy-document</title>
    <desc>Created with Sketch.</desc>
    <g id="Page-1" stroke="none" stroke-width="1" fill="none" fill-rule="evenodd">
        <g id="Приведи-друга_авторизованный_Landing_Extra-large-≥1200px-" transform="translate(-669.000000, -4680.000000)" fill="#BCBCBC" fill-rule="nonzero">
            <g id="Group-11-Copy" transform="translate(657.000000, 4564.000000)">
                <g id="Group-27-Copy" transform="translate(0.000000, 104.000000)">
                    <g id="Group-26">
                        <g id="copy-document" transform="translate(12.000000, 12.000000)">
                            <path d="M22.6407212,5.28792265 C22.4010222,5.04844936 22.1102545,4.92860033 21.7681485,4.92860033 L16.4285521,4.92860033 C15.9153032,4.92860033 15.367484,5.09969763 14.7858138,5.44198215 L14.7858138,1.23229618 C14.7858138,0.889921759 14.6661441,0.598795607 14.4264451,0.359412228 C14.1867461,0.119849031 13.8959785,0 13.5535128,0 L8.21436597,0 C7.87208012,0 7.49553871,0.0855486517 7.0848766,0.256601 C6.67416954,0.427698304 6.34905642,0.633140941 6.10935743,0.872749093 L0.872752502,6.10937851 C0.633143414,6.34894171 0.427699975,6.67414347 0.256602003,7.08480397 C0.0855489859,7.49564429 0,7.8719145 0,8.21433388 L0,16.8392384 C0,17.1817027 0.119714634,17.4727839 0.359278768,17.7121223 C0.598887856,17.9518204 0.889880281,18.0714896 1.23203127,18.0714896 L8.21432102,18.0714896 L8.21432102,21.7680635 C8.21432102,22.1101681 8.3339907,22.4012493 8.57359979,22.6406327 C8.81307401,22.8803308 9.10406643,23 9.44635229,23 L21.7680586,23 C22.1101646,23 22.401247,22.8803308 22.6406313,22.6406327 C22.8803303,22.4012493 22.9999999,22.1101681 22.9999999,21.7680635 L22.9999999,6.16085156 C23.0000899,5.81856704 22.8804202,5.5275308 22.6407212,5.28792265 Z M14.7858138,7.6624709 L14.7858138,11.4999775 L10.9482023,11.4999775 L14.7858138,7.6624709 Z M6.57140287,2.73382562 L6.57140287,6.57133224 L2.73388125,6.57133224 L6.57140287,2.73382562 Z M9.08711847,11.0379339 C8.84750939,11.277542 8.64206595,11.6027438 8.47096798,12.0134942 C8.29991496,12.4244244 8.21436597,12.8005598 8.21436597,13.1430241 L8.21436597,16.428443 L1.6429631,16.428443 L1.6429631,8.21433388 L6.98206497,8.21433388 C7.32444074,8.21433388 7.61534325,8.09457476 7.85495234,7.85496661 C8.09442656,7.61535845 8.21432102,7.32445708 8.21432102,6.98230742 L8.21432102,1.64295669 L13.1430305,1.64295669 L13.1430305,6.98226247 L9.08711847,11.0379339 Z M21.3570368,21.3572681 L9.85692448,21.3572681 L9.85692448,13.1427094 L15.1964309,13.1427094 C15.5387168,13.1427094 15.8294845,13.0230402 16.0690036,12.7833422 C16.3085228,12.5439588 16.4283723,12.2530124 16.4283723,11.9107729 L16.4283723,6.57137719 L21.3567222,6.57137719 L21.3567222,21.3572681 L21.3570368,21.3572681 Z" id="Shape"></path>
                        </g>
                    </g>
                </g>
            </g>
        </g>
    </g>
</svg>