<svg height="43" viewBox="0 0 50 43" width="50" xmlns="http://www.w3.org/2000/svg" xmlns:xlink="http://www.w3.org/1999/xlink"><mask id="a" fill="#fff"><path d="m0 0h54v48h-54z" fill="#fff" fill-rule="evenodd"/></mask><g fill="#295386" fill-rule="evenodd" mask="url(#a)" opacity=".1" transform="translate(0 -5)"><path d="m45.6123051 12.5420878-8.8959691-10.14648122c-1.7602736-1.82696287-4.627816-1.8293801-6.4046142.01473357-.5630613.5843933-.9463467 1.28423795-1.1450873 2.03081565-1.7697004-1.40705608-4.3226072-1.26708715-5.9527899.42485635-.5607323.5843933-.9440177 1.28423795-1.1475271 2.02828331-1.7697005-1.40210652-4.3226073-1.26466993-5.9503501.42727358-.5513055.57219206-.9298219 1.2547708-1.1356604 1.98166537l-7.20480424-7.12778659c-1.76027354-1.82696287-4.62781592-1.82938009-6.40461421.01473357-1.76260253 1.82696288-1.76260253 4.80314433 0 6.63252443l19.11970015 19.49408758-9.5537427 1.556809c-2.58129828.3830729-4.52844562 2.7109772-4.52844562 5.4195371 0 2.0308157 1.59225348 3.6833929 3.54893859 3.6833929h22.30862803c3.4756308 0 6.7429833-1.4046389 9.2011778-3.955964l3.7216166-3.8626129c2.4558655-2.5464907 3.8067912-5.9352121 3.8067912-9.5375704 0-3.3642039-1.2018702-6.5883237-3.3832475-9.0782973zm-2.0963137 16.8797234-3.7216166 3.862613c-2.0110283 2.0872176-4.684599 3.2364362-7.5285187 3.2364362h-22.30862803c-.6530047 0-1.1830165-.5500917-1.1830165-1.227836 0-1.4930403 1.07410844-2.7772782 2.51497753-2.990915l11.8653216-1.9350475c.4400684-.0712506.8020602-.3928568.9416887-.8324467.1371887-.4370576.0260625-.9208483-.288684-1.2474041l-20.76396773-21.2006495c-.8398785-.87169795-.8398785-2.29107037.01186677-3.17750189.42110374-.43464036.97240917-.65322671 1.5237146-.65322671s1.10249995.21858635 1.5237146.65564393l14.84921796 15.06181487c.4613621.4788411 1.211408.4788411 1.6727701 0 .229461-.2406867.345467-.5549262.345467-.8692807 0-.3143546-.1158951-.628594-.347796-.8692807l-4.8336544-5.0167812c-.8398785-.8716979-.8398785-2.28865311.0141958-3.17508463.8375495-.86928072 2.2074398-.86928072 3.0449893 0l4.8359833 5.01919833c.461362.4788411 1.211408.4788411 1.6727701 0 .229461-.2406867.3454669-.5549261.3454669-.8692807s-.115895-.628594-.3477959-.8692807l-2.4677323-2.56122425c-.8398785-.87169795-.8398785-2.28865315.0141957-3.17508467.8375496-.86928072 2.2074399-.86928072 3.0449894 0l2.4794881 2.57342546c.4776649.46882685 1.2111862.45904284 1.6630104-.01243145.4613621-.47884108.4613621-1.25730314 0-1.73614422l-.1016992-.10555222c-.406908-.42232402-.6317111-.98473207-.6317111-1.58144172s.2223632-1.15658537.6435778-1.59364295c.8423184-.86928072 2.2051108-.8668635 3.007171-.04178349l8.8581507 10.10481281c1.7814563 2.0358804 2.7657322 4.6731897 2.7657322 7.4259503 0 2.9467143-1.1049399 5.7166258-3.1136391 7.8014261z" fill-rule="nonzero" transform="matrix(-.70710678 .70710678 -.70710678 -.70710678 42.453697 26.598789)"/><path d="m52.6825368 8.30317298c.6666067.30425102.9599137 1.08472104.6799389 1.74613632-.2266463.4894473-.7066032.7936983-1.2265564.7936983-.1733178 0-.3466355-.0396849-.5199533-.1058264-.6799388-.2777945-.9865779-1.05826447-.7066031-1.73290804l.0133321-.03968491c.293307-.66141527 1.0932351-.96566629 1.7598418-.66141527zm4.3431161.69081981c.5732007.45648023.6689824 1.28472431.2373132 1.85876071-.338322.4200779-.877627.5991793-1.3821354.4733912-.1681695-.0419293-.3267383-.1223648-.4789067-.228471-.5925373-.4340348-.7012551-1.26550426-.2663856-1.85237599l.0225367-.03528077c.4446054-.57081103 1.2943771-.67250439 1.8675778-.21602415zm4.0527936 1.78416551c.4355235.5892812.3136762 1.4140937-.2518558 1.8568461-.435518.3181999-1.0028016.3516162-1.4575629.0995378-.1515872-.0840261-.2839347-.2027614-.4034557-.3446362-.4600106-.5726054-.3498238-1.4038814.2221214-1.8582035l.0309002-.0282456c.5771925-.4362888 1.4243292-.3145799 1.8598528.2747014zm3.4765452 2.7332996c.2800266.6771399-.0377415 1.4479744-.6935863 1.7407605-.4995608.2033867-1.0580778.098572-1.4383475-.2560352-.1267566-.1182025-.2264481-.2654286-.3080963-.4320039-.3078204-.6668831.0001972-1.4468101.6650636-1.7492708l.0368156-.0199312c.6655952-.2836937 1.4581243.0393408 1.7381509.7164806zm2.7038022 3.5490972c.0952282.7265431-.4112189 1.3888676-1.1204949 1.5019322-.5351791.0671606-1.047537-.1786375-1.3230702-.6195828-.0918444-.1469818-.1500341-.3149934-.1857873-.4970249-.1247297-.7238294.3746524-1.3974602 1.0951467-1.5175347l.0407196-.0097235c.716341-.1017583 1.3982578.4153907 1.4934861 1.1419337zm1.7493816 4.0986497c-.0833671.7279994-.7350013 1.2481294-1.4505616 1.186246-.5355296-.0643059-.9732044-.4267532-1.1338788-.9212581-.0535581-.164835-.0693736-.3419333-.0600274-.5272071.0540855-.7325035.7015999-1.2653131 1.4297411-1.2075176l.0418624.0004163c.7196801.074563 1.2562314.741321 1.1728643 1.4693205zm.6938306 4.4132284c-.2570098.6862064-1.0151185 1.0332417-1.6944527.8000868-.5040651-.191952-.841055-.6495162-.8773251-1.1682029-.0120901-.1728956.0154081-.3485594.0692985-.5260688.2296876-.6976605.9868664-1.0579955 1.6793966-.8257634l.0405182.0105314c.6802642.2464545 1.0395742 1.0232105.7825645 1.7094169zm-.4187818 4.4706293c-.4258556.5963054-1.2479518.7353028-1.8437933.3342679-.4372086-.3158731-.6442896-.8450656-.5450778-1.3554659.0330705-.1701334.1050969-.3326945.2030938-.4902076.402429-.6144408 1.2270691-.7665253 1.8358959-.3629664l.0364119.0206595c.5932976.414122.7393252 1.257407.3134695 1.8537125zm-1.4842102 4.2074596c-.5574653.4755688-1.3887682.4115543-1.8698915-.1217152-.3478051-.4122607-.4207116-.9758313-.2009699-1.447069.0732473-.1570792.1824613-.2973869.3156531-.4265135.5391218-.4988329 1.3760591-.4469014 1.8691714.0919586l.0303323.0288546c.475489.5453526.4131698 1.3989157-.1442954 1.8744845zm-2.4861244 3.7126632c-.6615564.3150816-1.4479652.0380913-1.7746743-.6015314-.229253-.4882318-.1538125-1.0514688.180407-1.4497761.1114065-.1327691.2532135-.2400293.4152873-.3302834.6498591-.3423006 1.4448377-.0755233 1.7816803.5726024l.0218307.035722c.3181394.6498357.0370253 1.4581849-.624531 1.7732665zm-3.294343 2.9600133c-.7181305.1456773-1.4141695-.3133347-1.5764353-1.012996-.1043292-.5291905.1051298-1.0574463.5257808-1.3630671.140217-.1018737.3037602-.1716415.4828542-.2200055.7133656-.1749176 1.4201906.2762579 1.5902317.9866211l.0125403.0399422c.1514799.7074977-.3168413 1.4238279-1.0349717 1.5695053zm-3.9143053 2.0367053c-.7320414-.0323814-1.2963601-.6461458-1.2845425-1.3642798.0267926-.5387108.3578264-1.0006025.8399187-1.1953804.1606974-.064926.3362611-.0930567.5217355-.0966573.734492.0028569 1.311172.6116271 1.3043098 1.3420261l.0025049.0417895c-.024179.7231283-.6518849 1.3048833-1.3839264 1.2725019zm-4.3116149.9788354c-.6987168-.2207443-1.0849529-.9596517-.8876712-1.6502572.1653083-.5134202.6046088-.8738955 1.1206864-.9372618.1720258-.0211221.3488881-.0028551.5289746.0416712.7087253.1928601 1.1081941.9301427.9125245 1.633878l-.0083964.0410138c-.2105144.6922304-.9674011 1.0917002-1.6661179.870956zm-4.3938376-.1329466c-.6245591-.3832222-.8205644-1.1936198-.4620702-1.8159846.2846055-.4581778.7980637-.701669 1.3141413-.6383026.1720259.0211221.3392154.0816333.5031806.168404.6410161.3585875.8502542 1.1706099.4901479 1.8061044l-.0180692.0377643c-.3717269.6207401-1.2027713.8252366-1.8273304.4420145zm-11.8053178-27.6703688c.6112673-.4040861 1.4285724-.2392384 1.8411203.3486904.2949706.4515745.2986518 1.0198295.0231185 1.4607748-.0918444.1469818-.2173435.2729338-.3652791.3848659-.5958958.4294123-1.4202658.2758709-1.844032-.3190679l-.0265898-.0323361c-.4054829-.5992351-.2396051-1.438841.3716621-1.8429271zm2.923546-3.3679544c.695024-.2321096 1.4418144.1386552 1.6881379.8133261.1680436.5125314.0245241 1.0623763-.3557456 1.4169836-.1267566.1182024-.2805782.2073811-.4524432.2772107-.6867312.2605512-1.4432721-.101121-1.6986172-.7854665l-.0173146-.0381162c-.236573-.6837634.1409587-1.4518281.8359827-1.6839377zm3.6328333-2.5181875c.7305312-.0570734 1.3654427.483343 1.4412317 1.1975643.0390594.5379605-.2332165 1.0367522-.6879779 1.2888305-.1515871.0840261-.3224138.133343-.506067.1595205-.7293653.0866764-1.3759373-.4472765-1.4581395-1.1730675l-.0075791-.0411728c-.0641284-.7206848.4880006-1.3746016 1.2185318-1.431675zm4.1571661-1.51920055c.7204106.13394671 1.1938179.82027605 1.0821704 1.52977645-.1015059.5297394-.493601.9410649-.9981095 1.066853-.1681694.0419293-.3459396.0453526-.5301101.0231051-.7269463-.1050506-1.2132897-.7881546-1.1048424-1.51049044l.0033355-.04173144c.1245836-.71272579.8271454-1.20145937 1.5475561-1.06751267z" transform="matrix(.9961947 .08715574 -.08715574 .9961947 -17.522737 -5.554187)"/></g></svg>