<svg xmlns="http://www.w3.org/2000/svg" xmlns:xlink="http://www.w3.org/1999/xlink" width="296" height="192" xmlns:v="https://vecta.io/nano"><defs><path id="A" d="M0 0h303v213.55H0z"/><circle id="B" cx="201.648" cy="201.817" r="201.324"/><linearGradient x1="50%" y1="0%" x2="50%" y2="100%" id="C"><stop stop-color="#f7ae3f" offset="0%"/><stop stop-color="#ff9b19" offset="100%"/></linearGradient><path d="M9.246 7.687L39.898.57a11 11 0 0 1 4.975 0L75.59 7.702a11 11 0 0 1 8.425 12.094l-7.87 62.262a11 11 0 0 1-8.138 9.265c-8.526 2.223-17.047 3.335-25.565 3.335-8.49 0-16.9-1.105-25.225-3.314h0a11 11 0 0 1-8.082-9.179L.83 19.856A11 11 0 0 1 9.246 7.687z" id="D"/><path d="M0 0h25.6v7.88a10 10 0 0 1-2.859 7.001l-3.543 3.614a8.97 8.97 0 0 1-12.679.125l-.125-.125L2.86 14.88A10 10 0 0 1 0 7.879V0z" id="E"/><path d="M.092.15L37.79 3.6v1.964c0 5.523-4.477 10-10 10h-.7c-6.877 0-13.492-2.636-18.484-7.366L.092.15z" id="F"/><linearGradient x1="50%" y1="0%" x2="50%" y2="100%" id="G"><stop stop-color="#7ca8d3" offset="0%"/><stop stop-color="#8ba5c3" offset="100%"/></linearGradient><path d="M12.8 1.57C15.645.523 18.04 0 19.975 0s4.33.523 7.185 1.57h0a18 18 0 0 1 11.804 16.9v10.455a3 3 0 0 1-4.099 2.792l-14.89-5.86-14.89 5.86a3 3 0 0 1-4.099-2.792V18.47A18 18 0 0 1 12.79 1.57z" id="H"/><path d="M0 0h25.6v6.563a10 10 0 0 1-4.516 8.362l-8.29 5.436-8.29-5.436A10 10 0 0 1 0 6.563V0z" id="I"/><path d="M0 0l.508.085a18 18 0 0 1 14.445 13.182l2.12 8.075-8.613-5.383A18 18 0 0 1 0 .694V0z" id="J"/><path d="M4.53.126l.497.085a18 18 0 0 1 14.396 13.282l2.2 8.565-8.807-5.653A18 18 0 0 1 4.53 1.257V.126z" id="K"/><path d="M9.64 3.286l.71 3.907a2 2 0 0 1-2.287 2.333L4.196 8.9a2 2 0 0 1-1.122-3.361l3.158-3.28a2 2 0 0 1 3.409 1.029z" id="L"/><linearGradient x1="50%" y1="100%" x2="50%" y2="3.061617e-15%" id="M"><stop stop-color="#434141" offset="0%"/><stop stop-color="#555554" offset="100%"/></linearGradient><linearGradient x1="50%" y1="0%" x2="50%" y2="115.509459%" id="N"><stop stop-color="#515150" offset="0%"/><stop stop-color="#2e2e2e" offset="100%"/></linearGradient><path d="M8.035.642L17.106 0c2.327 0 6.046.27 11.155.806h0c4.934.52 8.514 4.94 7.995 9.874-.137 1.304-.558 2.56-1.233 3.685l-2.232 3.716c-3.045 5.07-8.526 8.173-14.44 8.173h0a17.22 17.22 0 0 1-14.593-8.08l-2.385-3.81A9 9 0 0 1 4.225 1.962 9 9 0 0 1 8.035.642z" id="O"/><path d="M0 0h33.234v12.837a10 10 0 0 1-1.765 5.673c-4.95 7.186-9.9 10.78-14.852 10.78s-9.9-3.593-14.852-10.78h0A10 10 0 0 1 0 12.837V0z" id="P"/><path d="M0 0l48.92 4.568 1.293 5.513c1.26 5.377-2.075 10.758-7.452 12.02a10 10 0 0 1-3.105.231l-9.438-.777a25 25 0 0 1-15.456-7.07L0 0z" id="Q"/><linearGradient x1="50%" y1="0%" x2="50%" y2="118.435036%" id="R"><stop stop-color="#383837" offset="0%"/><stop stop-color="#555554" offset="100%"/></linearGradient><filter x="-11.7%" y="-9.3%" width="123.3%" height="125.9%" id="S"><feOffset dy="1" in="SourceAlpha"/><feGaussianBlur stdDeviation="1"/><feColorMatrix values="0 0 0 0 0.742001488 0 0 0 0 0.104552861 0 0 0 0 0.0561390409 0 0 0 1 0" result="C"/><feMerge><feMergeNode in="C"/><feMergeNode in="SourceGraphic"/></feMerge></filter><linearGradient x1="70.0534431%" y1="28.183314%" x2="45.8385095%" y2="106.208123%" id="T"><stop stop-color="#ea5d4c" offset="0%"/><stop stop-color="#b9180e" offset="100%"/></linearGradient><path d="M25.66 4.56c-1.25-1.383-2.985-2.145-4.884-2.145-2.67 0-4.362 1.555-5.31 2.86-.246.34-.455.678-.63.997a9.43 9.43 0 0 0-.631-.997c-.948-1.305-2.64-2.86-5.31-2.86-1.9 0-3.634.762-4.884 2.145-1.193 1.32-1.85 3.086-1.85 4.975 0 2.056.824 3.97 2.592 6.018 1.58 1.832 3.854 3.72 6.487 5.907l3.108 2.606a.75.75 0 0 0 .489.179c.175 0 .35-.06.49-.18l.032-.028 3.076-2.58 6.487-5.907c1.768-2.05 2.592-3.962 2.592-6.018 0-1.89-.657-3.656-1.85-4.975z" id="U"/><radialGradient cx="70.0534431%" cy="28.183314%" fx="70.0534431%" fy="28.183314%" r="83.1548818%" gradientTransform="translate(0.700534,0.281833),scale(0.842105,1.000000),rotate(110.230841),translate(-0.700534,-0.281833)" id="V"><stop stop-color="#ff6e5c" offset="0%"/><stop stop-color="#b9180e" offset="100%"/></radialGradient><path d="M13.713 2.258c-.66-.714-1.575-1.107-2.578-1.107-1.4 0-2.302.803-2.803 1.476-.13.175-.24.35-.333.515a4.85 4.85 0 0 0-.333-.515c-.5-.673-1.393-1.476-2.803-1.476-1.002 0-1.918.393-2.578 1.107-.63.68-.976 1.593-.976 2.568 0 1.06.435 2.048 1.368 3.106.834.946 2.034 1.92 3.424 3.05l1.64 1.345c.074.062.166.092.258.092s.184-.03.258-.092l.017-.014 1.623-1.33 3.424-3.05c.933-1.058 1.368-2.045 1.368-3.106 0-.975-.347-1.887-.976-2.568z" id="W"/><radialGradient cx="70.0534431%" cy="28.183314%" fx="70.0534431%" fy="28.183314%" r="82.8766053%" gradientTransform="translate(0.700534,0.281833),scale(0.866667,1.000000),rotate(109.702201),translate(-0.700534,-0.281833)" id="X"><stop stop-color="#ff6e5c" offset="0%"/><stop stop-color="#b9180e" offset="100%"/></radialGradient><path d="M8.462 2.16a2.15 2.15 0 0 0-1.62-.716c-.886 0-1.447.52-1.762.955-.082.113-.15.226-.21.333a3.15 3.15 0 0 0-.209-.333c-.315-.436-.876-.955-1.762-.955a2.15 2.15 0 0 0-1.62.716C.883 2.6.665 3.19.665 3.822c0 .686.273 1.325.86 2.01.524.612 1.278 1.242 2.152 1.972l1.03.87c.046.04.104.06.162.06s.116-.02.162-.06l.01-.01 1.02-.86L8.216 5.83c.587-.684.86-1.323.86-2.01 0-.63-.218-1.22-.614-1.66z" id="Y"/><path d="M8.476 3.115a1.79 1.79 0 0 0-1.35-.596c-.738 0-1.206.433-1.468.795-.068.094-.126.19-.174.277-.05-.09-.106-.183-.174-.277-.262-.363-.73-.795-1.468-.795a1.79 1.79 0 0 0-1.35.596 2.06 2.06 0 0 0-.511 1.384c0 .572.228 1.104.716 1.674.437.5 1.065 1.035 1.793 1.643l.86.725c.04.033.087.05.135.05s.096-.017.135-.05l.01-.008.85-.717L8.27 6.173c.49-.57.716-1.102.716-1.674a2.06 2.06 0 0 0-.511-1.384z" id="Z"/><path d="M7.646 1.648a1.79 1.79 0 0 0-1.35-.596c-.738 0-1.206.433-1.468.795-.068.094-.126.19-.174.277-.05-.09-.106-.183-.174-.277-.262-.363-.73-.795-1.468-.795a1.79 1.79 0 0 0-1.35.596 2.06 2.06 0 0 0-.511 1.384c0 .572.228 1.104.716 1.674.437.5 1.065 1.035 1.793 1.643l.86.725c.04.033.087.05.135.05s.096-.017.135-.05l.01-.008.85-.717L7.44 4.705c.49-.57.716-1.102.716-1.674a2.06 2.06 0 0 0-.511-1.384z" id="a"/><path id="b" d="M68.2 75.4c2.727 1.8 5.454 2.7 8.182 2.7s5.454-.9 8.182-2.7h0c0 3.62-2.934 6.554-6.554 6.554h-3.256c-3.62 0-6.554-2.934-6.554-6.554z"/></defs><g transform="translate(-4 -21)" fill="none" fill-rule="evenodd"><mask id="c" fill="#fff"><use xlink:href="#A"/></mask><g mask="url(#c)"><g transform="translate(-55 -191)"><mask id="d" fill="#fff"><use xlink:href="#B"/></mask><g mask="url(#d)"><g transform="translate(42 212)"><g transform="translate(181)"><g fill="#ffae34"><path d="M109.728 100.3h0a17.01 17.01 0 0 1 16.048 11.367l18.643 53.004a3 3 0 0 1-2.83 3.995h-19.35a7 7 0 0 1-6.738-5.102l-14.554-51.666c-1.366-4.85 1.458-9.9 6.31-11.256.805-.227 1.638-.342 2.474-.342z" transform="matrix(.984808 .173648 -.173648 .984808 25.21519 -19.245375)"/><path d="M17.728 100.3h0a17.01 17.01 0 0 1 16.048 11.367l18.643 53.004a3 3 0 0 1-2.83 3.995h-19.35a7 7 0 0 1-6.738-5.102L8.946 111.898c-1.366-4.85 1.458-9.9 6.31-11.256.805-.227 1.638-.342 2.474-.342z" transform="matrix(-.984808 .173648 .173648 .984808 37.373326 -3.269742)"/></g><g transform="translate(34 89)"><mask id="e" fill="#fff"><use xlink:href="#D"/></mask><use fill="url(#C)" xlink:href="#D"/><path d="M24.964-5.024h34.073V6.808a10 10 0 0 1-2.859 7.001l-5.66 5.772a11.93 11.93 0 0 1-16.869.167l-.167-.167-5.66-5.772a10 10 0 0 1-2.859-7.001V-5.024z" fill="#f09928" mask="url(#e)"/></g><path d="M67.2 1.77C69.967.6 72.734 0 75.5 0s5.533.6 8.3 1.77h0A13.5 13.5 0 0 1 92 14.187V18.5C92 24.85 86.85 30 80.5 30h-10C64.15 30 59 24.85 59 18.5v-4.313a13.5 13.5 0 0 1 8.201-12.417z" fill="#555767"/><rect fill="#fcdd00" x="61" y="10" width="29" height="24" rx="12"/><path d="M70.293 13.57L76.26 13c.342 0 1.735.094 4.18.283h0c17.18 1.327 30.034 16.33 28.707 33.513-.037.48-.085.96-.145 1.44l-1.37 11.046C105.665 75.113 92.212 87 76.26 87h0C60.23 87 46.742 75 44.89 59.068L43.5 47.103c-1.927-16.575 9.947-31.574 26.522-33.5l.27-.03z" fill="#555767"/><g transform="translate(63.195 84.976)"><mask id="f" fill="#fff"><use xlink:href="#E"/></mask><use fill="#f2d3cc" xlink:href="#E"/><g mask="url(#f)"><g transform="translate(-5.114 -3.61)"><use fill="#d7ad8e" xlink:href="#F"/></g></g></g><path d="M76 23.69h0a22.69 22.69 0 0 1 22.685 22.685V65.62a27.37 27.37 0 0 1-11.343 22.187l-3.73 2.695a13 13 0 0 1-15.226 0l-3.73-2.695a27.37 27.37 0 0 1-11.343-22.187V46.375A22.69 22.69 0 0 1 76 23.689z" fill="#f2d3cc"/><path d="M68.2 75.4c2.727.867 5.454 1.3 8.182 1.3s5.454-.433 8.182-1.3v2.013c0 4.52-3.663 8.182-8.182 8.182h0c-4.52 0-8.182-3.663-8.182-8.182V75.4z" fill="#d88383"/><use xlink:href="#b" fill="#fff"/><path d="M78.967 69.152a.54.54 0 0 1-.035-.079h0c-.964-2.79-1.603-5.304-1.918-7.547-.514-3.654-.18-3.952.368-.052.333 2.367 1.2 4.612 2.572 6.733h0a.84.84 0 0 1-.044.976c-.22 1.244-1.216 2.26-2.534 2.446l-.64.1a2.96 2.96 0 0 1-3.339-2.516c1.213.727 2.365 1.024 3.454.87.734-.103 1.438-.4 2.115-.92z" fill="#d6b39a"/><path d="M82.182 21l-5.585-1.68c-13.576-.966-25.365 9.256-26.33 22.833-.163 2.286-.006 4.584.466 6.826L52 55l16-24c2 3.333 6 6.667 12 10s12.667 6.333 20 9h0c2.28-12.787-5.38-25.255-17.818-29z" fill="#555767"/><g fill="#595a63"><path d="M86.98 60.283c-.3-.788-1.168-1.354-2.18-1.354s-1.87.566-2.18 1.354h-.366a.68.68 0 0 1-.678-.678c0-.898 1.116-2.876 4.144-2.876 2.02 0 3.246.683 3.683 2.048l1.842-.898c0 1.328-1.076 2.404-2.404 2.404h-1.86zm-21.135 0c.3-.788 1.168-1.354 2.18-1.354s1.87.566 2.18 1.354h.366a.68.68 0 0 0 .678-.678c0-.898-1.116-2.876-4.144-2.876-2.02 0-3.246.683-3.683 2.048l-1.842-.898c0 1.328 1.076 2.404 2.404 2.404h1.863z"/></g><g fill="#5c5e70"><path d="M84.495 50.424h0a1.28 1.28 0 0 1 1.42-.646c.843.196 1.44.388 1.795.577.3.16 1.47.65 2.344 1.408.346.3.773.85 1.28 1.643-.843-.562-1.996-1.057-3.46-1.484-1.064-.3-2.03-.5-2.896-.597h0c-.338-.034-.585-.336-.55-.674.008-.08.03-.157.07-.228zm-16.503 0h0a1.28 1.28 0 0 0-1.42-.646c-.843.196-1.44.388-1.795.577-.3.16-1.47.65-2.344 1.408-.346.3-.773.85-1.28 1.643.843-.562 1.996-1.057 3.46-1.484 1.064-.3 2.03-.5 2.896-.597h0c.338-.034.585-.336.55-.674-.008-.08-.03-.157-.07-.228z"/></g><g fill="#fcdd00"><path d="M99 67a2.5 2.5 0 1 0 0-5v5z"/><path d="M51 67a2.5 2.5 0 1 0 0-5v5z" transform="matrix(-1 0 0 1 104.5 0)"/></g></g><g transform="translate(0 4)"><path d="M73.925 0h2.48c19.518 0 35.34 15.823 35.34 35.34a35.34 35.34 0 0 1-.022 1.243L110.22 79.28l1.174 7.167a11 11 0 0 1-8.147 12.44c-13.804 3.506-23.236 5.26-28.297 5.26-5.05 0-14.958-2.643-29.727-7.93h0c-5.72-2.047-8.697-8.344-6.65-14.063a11 11 0 0 1 .114-.304l1.006-2.57V34.23C39.694 15.326 55.02 0 73.925 0z" fill="#d6ad69"/><path d="M43.246 87.687l30.652-7.116a11 11 0 0 1 4.975 0l30.718 7.132a11 11 0 0 1 8.425 12.094l-7.87 62.262a11 11 0 0 1-8.138 9.265c-8.526 2.223-17.047 3.335-25.565 3.335-8.49 0-16.9-1.105-25.225-3.314h0a11 11 0 0 1-8.082-9.179l-8.306-62.31a11 11 0 0 1 8.416-12.168z" fill="url(#G)"/><g fill="#86a6c9"><path d="M114 89.634h0a15.08 15.08 0 0 1 14.227 10.077l16.368 46.537a3 3 0 0 1-2.83 3.995H125.69a7 7 0 0 1-6.738-5.102l-12.74-45.225A8.09 8.09 0 0 1 114 89.634z"/><path d="M16.32 90.634h0c6.436 0 12.21 3.962 14.522 9.97l17.607 45.71a3 3 0 0 1-2.799 4.078H28.766a7 7 0 0 1-6.705-4.989L8.707 100.866a7.95 7.95 0 0 1 7.614-10.232z" transform="matrix(-.992546 .121869 .121869 .992546 42.121675 -2.576272)"/></g><g transform="translate(54.805 71.707)"><use fill="#fff" xlink:href="#H"/></g><g transform="translate(63.195 75.976)"><mask id="g" fill="#fff"><use xlink:href="#I"/></mask><use fill="#efcbad" xlink:href="#I"/><g mask="url(#g)"><g transform="translate(-5.114 -3.61)"><use fill="#d7ad8e" xlink:href="#J" href="#F"/></g></g></g><path d="M76 14.69h0a22.69 22.69 0 0 1 22.685 22.685v19.593c0 8.525-4.255 16.488-11.343 21.227l-4.118 2.753a13 13 0 0 1-14.45 0l-4.118-2.753c-7.088-4.738-11.343-12.7-11.343-21.227V37.375A22.69 22.69 0 0 1 76 14.689z" fill="#efcbad"/><path d="M68.2 66.4c2.727.867 5.454 1.3 8.182 1.3s5.454-.433 8.182-1.3v2.013c0 4.52-3.663 8.182-8.182 8.182h0c-4.52 0-8.182-3.663-8.182-8.182V66.4z" fill="#d6a581"/><use xlink:href="#b" y="-9" fill="#fff"/><path d="M78.967 60.152a.54.54 0 0 1-.035-.079h0c-.964-2.79-1.603-5.304-1.918-7.547-.296-2.106-.394-4-.295-5.65h0a.93.93 0 0 1 .8-.867.4.4 0 0 1 .426.554c-.697 1.653-.884 3.623-.563 5.912.333 2.367 1.2 4.612 2.572 6.733h0a.84.84 0 0 1-.044.976c-.22 1.244-1.216 2.26-2.534 2.446l-.64.1a2.96 2.96 0 0 1-3.339-2.516c1.213.727 2.365 1.024 3.454.87.734-.103 1.438-.4 2.115-.92z" fill="#d6b39a"/><g fill="#c09a59" fill-rule="nonzero"><path d="M53.805 44.39c0 1.703-1.38 1.556-1.707-.128-4.268-22.067 3.58-37.52 23.27-37.52 19.663 0 26.182 14.6 24.534 36.445-.128 1.7-1.493 1.7-1.63 0-1.512-18.764-6.545-30.27-22.903-30.27-16.33 0-21.564 10.986-21.564 31.474z"/></g><path d="M86.46 14.577l-9.863-4.257-12.373 4.683c-5.67 2.146-9.423 7.578-9.423 13.64h0c0 5.564 4.51 10.075 10.075 10.075H83.23l1.776-12.162.77 12.162c5.486 0 9.934-4.448 9.934-9.934v-.14a15.32 15.32 0 0 0-9.25-14.067z" fill="#d6ad69"/><g fill="#595a63"><path d="M86.5 53.283c.376-.356.605-.83.605-1.352 0-1.106-1.03-2.002-2.302-2.002s-2.302.896-2.302 2.002c0 .314.083.6.23.875-.696-.484-1.152-1.3-1.152-2.2 0-.898 1.116-3.876 4.144-3.876 2.02 0 3.246 1.016 3.683 3.048l1.842-.898c0 2.432-1.972 4.404-4.404 4.404H86.5zm-20.255 0c-.376-.356-.605-.83-.605-1.352 0-1.106 1.03-2.002 2.302-2.002s2.302.896 2.302 2.002c0 .314-.083.6-.23.875.696-.484 1.152-1.3 1.152-2.2 0-.898-1.116-3.876-4.144-3.876-2.02 0-3.246 1.016-3.683 3.048l-1.842-.898c0 2.432 1.972 4.404 4.404 4.404h.345z"/></g><g fill="#a18d6a"><path d="M67.752 42.26h0a1.28 1.28 0 0 0-1.252-.906c-3.27.07-5.208.283-5.818.635-.398.23-.8.873-1.237 1.93 1.52-.663 2.56-1.043 3.12-1.142.28-.05 1.784.055 4.5.312h0c.354.033.67-.227.702-.58a.66.66 0 0 0-.025-.25zm16.015 0h0a1.28 1.28 0 0 1 1.252-.906c3.27.07 5.208.283 5.818.635.398.23.8.873 1.237 1.93-1.52-.663-2.56-1.043-3.12-1.142-.28-.05-1.784.055-4.5.312h0c-.354.033-.67-.227-.702-.58a.66.66 0 0 1 .025-.25z"/></g><g fill="#6a8db3"><circle cx="76.427" cy="111.402" r="1.28"/><circle cx="76.427" cy="119.085" r="1.28"/><circle cx="76.427" cy="126.768" r="1.28"/><circle cx="76.427" cy="134.451" r="1.28"/></g><g transform="translate(76 94.756)"><mask id="h" fill="#fff"><use xlink:href="#J"/></mask><use fill="#e9c000" xlink:href="#J"/><path d="M1.62-.57h0a10.17 10.17 0 0 1 12.779 6.593l.2.673 2.713 11.07-8.03-4.818C4.524 10.096 1.62 4.965 1.62-.57z" fill="#ffdf08" mask="url(#h)"/></g><g transform="translate(53.805 93.902)"><mask id="i" fill="#fff"><use xlink:href="#K"/></mask><use fill="#e9c000" transform="matrix(.241922 .970296 -.970296 .241922 20.67123 -4.274409)" xlink:href="#K"/><path d="M1.56.126l.497.085a18 18 0 0 1 14.396 13.282l2.2 8.565-8.807-5.653A18 18 0 0 1 1.559 1.257V.126z" fill="#ffdf08" mask="url(#i)" transform="matrix(.241922 .970296 -.970296 .241922 18.418992 -1.391676)"/></g><g transform="translate(70.024 89.78)"><mask id="j" fill="#fff"><use xlink:href="#L"/></mask><use fill="#e9c000" transform="matrix(.707107 .707107 -.707107 .707107 5.847328 -2.921587)" xlink:href="#L"/><path d="M10.74 2.51l.3 1.705c.384 2.1-1.015 4.132-3.125 4.516-.435.08-.88.084-1.315.013l-1.654-.268a2 2 0 0 1-1.122-3.361L7.33 1.482a2 2 0 0 1 3.409 1.029z" fill="#ffdf08" mask="url(#j)" transform="matrix(.707107 .707107 -.707107 .707107 5.523619 -3.671349)"/><path d="M6.137 8.332c.9-.3 1.733-.9 2.32-1.74l1.557-2.25a2 2 0 0 0 .355-1.176 1.99 1.99 0 0 0-.409-1.174l2.63-.05a2 2 0 0 1 1.683 3.138l-1.557 2.25C11.278 9.408 8.428 9.927 6.35 8.49l-.214-.157z" fill="#fff4a9" mask="url(#j)"/></g></g><g transform="translate(83.944 5.746)"><g transform="translate(0 .616)"><g transform="translate(0 3)"><path d="M113.436 89.345c4.702 1.604 7.798 7.04 7.37 12.944 2.918 12.622 4.164 21.875 3.737 27.76l-3.737 53.318c-.254 3.5-8.102 0-11 0H35.77c-2.896 0-10.76 3.5-11.013 0-3.846-23.635-6.118-40.272-6.818-49.912-.51-7.046 1.76-17.5 6.818-31.36-.422-5.816 2.578-11.193 7.186-12.88l37.58-13.75a4.65 4.65 0 0 1 3.126-.036l40.786 13.915z" fill="url(#M)"/><path d="M24.87 148.603c5.603 16.69 6.663 26.422 7.28 32.94l-28.306 1.483c-3.85-14.607 2-45.515 3.205-60.72C8.9 98.907 25.66 86.608 39.45 84.7c-9.114 7.747-25.456 31.51-14.582 63.902z" fill="url(#N)" transform="matrix(.99863 .052336 -.052336 .99863 7.034631 -.915569)"/><path d="M134.947 142.342c-5.125 17.384-15.405 24.706-15.405 33.89l-15.405 6.104c.9-7.84 2.68-16.263 2.873-18.914l2.927-39.55c1.854-23.398 24.16-35.698 37.95-37.604-9.114 7.747-2.65 21.176-12.94 56.074z" fill="#525252" transform="matrix(-1 0 0 1 252.024648 0)"/><g transform="translate(56.516 75.987)"><use fill="#fcdd00" xlink:href="#O"/></g><g transform="translate(58.083 68.924)"><mask id="k" fill="#fff"><use xlink:href="#P"/></mask><use fill="#f9d6b9" xlink:href="#P"/><g mask="url(#k)"><g transform="translate(-6.528 -1.476)"><use fill="#d7ad8e" xlink:href="#Q"/></g></g></g><path d="M74.642 3.08h0c13.67 0 24.752 11.082 24.752 24.752a24.75 24.75 0 0 1-.025 1.11l-.417 9.292-2.138 25.058a12 12 0 0 1-4.092 8.044l-7.21 6.255c-6.274 5.444-15.56 5.57-21.98.3l-7.275-5.97a12 12 0 0 1-4.329-8.099L49.44 38.57l-.186-9.604c-.27-14.02 10.875-25.607 24.896-25.88l.49-.005z" fill="#f9d6b9"/><path d="M65.887 64.7c3.01.84 5.844 1.262 8.506 1.262s5.498-.42 8.506-1.262h0c0 4.133-3.35 7.483-7.483 7.483H73.37c-4.133 0-7.483-3.35-7.483-7.483z" fill="#e3bc9f"/><path d="M66.504 65.317c2.662 1.4 5.324 2.098 7.987 2.098s5.324-.7 7.987-2.098h0a6.18 6.18 0 0 1-6.045 4.897H72.55a6.18 6.18 0 0 1-6.045-4.897z" fill="#fff"/><path d="M78.17 58.932c-1.462-3.062-2.3-6.116-2.516-9.162-.24-3.392-.21-5.81.085-7.253l.947 1.998c-.476.938-.518 2.866-.126 5.783.198 1.473 1.042 3.92 2.532 7.343l.007-.003a2.01 2.01 0 0 1-.008 1.622c-.056.1-.145.17-.247.202a3.26 3.26 0 0 1-3.245 2.512l-1.14-.025a4.41 4.41 0 0 1-4.261-3.738c1.015 1.358 2.344 2.056 3.985 2.095 1.19.028 2.52-.43 3.984-1.374z" fill="#d6b39a"/><path d="M59.363 2.15c-8.856 2.182-5.632 7.804-7.355 9.243-3.43 2.862-5.943 6.632-5.836 14.36.07 5.153 2.017 15.257 5.836 30.313-.402-4.227-.587-6.9-.555-8.05.555-19.985 6.067-29.366 9.656-25.16 2.472 2.897 16.96 1.64 14.986 3.98-1.316 1.56-2.67 2.26-4.065 2.096 3.64 1.435 7.1 1.75 10.38.946 2.797-.686 4.757-2.438 5.29-4.42.405-1.503 2.732-4.207 4.015-2.6 3.538 4.43 5.27 15.084 5.426 28.653.008.68-.063 1.6-.214 2.785 2.544-12.563 3.945-20.3 4.204-23.21C102.88 11.392 93.502-6.26 59.363 2.15z" fill="#545454"/><g fill="#595a63"><path d="M81.236 49.658a1.78 1.78 0 0 1-.844-1.561c.028-1.1 1.23-3.528 3.78-3.033 1.7.33 2.667 1.563 2.9 3.697a4.44 4.44 0 0 1-2.333 1.354c-.001-.85-.588-1.605-1.437-1.77-.922-.18-1.818.402-2.066 1.312zm-13.436 0a1.78 1.78 0 0 0 .844-1.561c-.028-1.1-1.23-3.528-3.78-3.033-1.7.33-2.667 1.563-2.9 3.697a4.44 4.44 0 0 0 2.333 1.354c.001-.85.588-1.605 1.437-1.77.922-.18 1.818.402 2.066 1.312z"/></g><g fill="#6c6969"><path d="M79.106 39.56h0a2.33 2.33 0 0 1 2.016-1.79c4.146-.448 6.73-.42 7.75.085.685.338 1.517 1.515 2.495 3.53-1.756-.447-3.204-.713-4.342-.8l-1.85-.084c-1.83-.033-3.46.07-4.884.313h0a1.04 1.04 0 0 1-1.196-.849c-.023-.135-.02-.274.012-.407zm-8.876 0h0a2.33 2.33 0 0 0-2.016-1.79c-4.146-.448-6.73-.42-7.75.085-.685.338-1.517 1.515-2.495 3.53 1.756-.447 3.204-.713 4.342-.8l1.85-.084c1.83-.033 3.46.07 4.884.313h0a1.04 1.04 0 0 0 1.196-.849c.023-.135.02-.274-.012-.407z"/></g><path fill="#fcdd00" d="M100.246 162.01H88.95v-28.434l-11.1 28.434H72.86l-11.034-28.434v28.434H50.528v-43.7h15.697l9.13 23.717L84.55 118.3h15.697z"/><g fill="#f9d6b9"><path d="M52.548 41.07v14.9a2.95 2.95 0 0 1-2.911-2.473l-1.535-9.367a2.99 2.99 0 0 1 4.445-3.071zm44.195.002a3.04 3.04 0 0 1 1.996-.365c1.64.263 2.75 1.785 2.485 3.4l-1.554 9.43c-.233 1.415-1.473 2.454-2.926 2.454V41.07z"/></g></g><g transform="matrix(.961262 -.275637 .275637 .961262 91.064581 73.07637)"><path d="M20.725 55.043l1.63.285a18 18 0 0 1 14.748 15.425c1.46 11.297 1.846 20.62 1.163 27.973-.715 7.68 7.486 39.223-17.915 39.223S2.53 106.562 2.53 98.726c0-8.395.69-18.918 2.072-31.57h0c.83-7.588 7.652-13.068 15.24-12.24a13.82 13.82 0 0 1 .883.125z" fill="url(#R)"/><path d="M12.678 55.285c2.62.926 5.24 1.39 7.86 1.39s5.24-.463 7.86-1.39h0c2.043-.722 4.284.35 5.006 2.392l.073.23c.755 2.642-.507 5.444-2.987 6.63-3.645 1.742-6.962 2.614-9.954 2.614s-6.31-.87-9.954-2.614h0c-2.48-1.185-3.742-3.987-2.987-6.63h0c.595-2.083 2.767-3.3 4.85-2.694.077.022.154.046.23.073z" fill="#fcdd00"/><path d="M11 52.383c-2.85-2.79-5.34-7.395-5.34-11.678 0-2.855-1.303-8.123-3.9-15.802 1.4-2.288 2.9-2.413 4.532-.373 2.447 3.06 3.66 6.273 4.272 8.108s1.224 2.142 1.224-1.1.612-4.88.612-11.127.612-13.46 1.224-16.407c.286-1.38 2.83-3.022 4.59.498.612 1.224.036 5.283 0 12.85-.027 5.774.757 7.374.918 7.456 1.2.615.75-20.58 1.836-22.752.612-1.224 2.59-1.504 3.606 0 .677 1.003-.004 20.554.677 20.803s.536-12.993 1.224-16.407 4.726-2.125 4.283 1.1-1.024 16.752-.612 17.744c.22.532.612-1.224 1.224-4.283s.58-6.202.6-7.288c.1-3.44 3.827-3.15 3.67.612-.014.347.392 3.987.247 7.604l-.47 9.48c0 1.224.9 5.302.225 9.785-.59 3.922-2.39 10.733-3.774 12.813-1.237 1.857-1.714 3.79-1.43 5.8-1.436 1.42-3.846 2.173-7.23 2.26-5.075.132-6.815-.956-8.944-3.063 0-2.447-.415-3.84-3.263-6.633z" fill="#f9d6b9" transform="matrix(.99863 .052336 -.052336 .99863 1.677252 -.942538)"/><g filter="url(#S)" transform="translate(11.006 19.124)"><use fill="url(#T)" transform="matrix(.987688 -.156434 .156434 .987688 -1.902864 2.484629)" xlink:href="#U"/></g><path d="M15.78 40.542c-2.85-2.79-6.006-2.89-6.35-5.33-.23-1.627-1.442-4.36-3.64-8.2-1.678-3.083-1.85-4.303-.515-3.66 1.016.49 2 2.41 3.127 4.54 1.084 2.065 2.387 4.94 2.688 5.845.127.382.253-.465.378-2.542.4 2.848 1.463 4.772 3.188 5.774 4.007 2.328 4.6 3.986 5.215 6.112 1.21 4.186 1.2 8.543.162 5.578-1.44-4.107-3.176-7.06-4.252-8.114z" fill="#ebc9af" transform="matrix(.99863 .052336 -.052336 .99863 1.922708 -.60912)"/></g><g opacity=".5" transform="matrix(.777146 .62932 -.62932 .777146 120.748756 41.605147)"><use fill="url(#V)" transform="matrix(.987688 -.156434 .156434 .987688 -.962888 1.334812)" xlink:href="#W"/></g><g opacity=".5" transform="matrix(.965926 .258819 -.258819 .965926 116.535539 13.379162)"><use fill="url(#X)" transform="matrix(.987688 -.156434 .156434 .987688 -.736137 .824563)" xlink:href="#Y"/></g><g opacity=".2" transform="matrix(.965926 .258819 -.258819 .965926 108.686478 26.473834)"><use fill="url(#X)" transform="matrix(.777146 -.62932 .62932 .777146 -2.27365 4.689459)" xlink:href="#Z"/></g><g opacity=".2" transform="matrix(.978148 -.207912 .207912 .978148 112.118417 2.035317)"><use fill="url(#X)" transform="matrix(.97437 .224951 -.224951 .97437 1.03866 -.942104)" xlink:href="#a"/></g></g></g></g></g></g></g></g></svg>