<svg height="40" viewBox="0 0 49 40" width="49" xmlns="http://www.w3.org/2000/svg"><g fill="none" transform="translate(0 1)"><path d="m9.24400662 37.7841726v-2.589928c.02913599-.4406352-.1240515-.8731039-.42048149-1.1870754s-.70743644-.4790833-1.12816395-.4532124c-.55445044-.0380944-1.08473984.2430923-1.38389593.733813-.2727445-.4760895-.77214872-.7576595-1.30152117-.733813-.4609208-.02442-.89971293.2087977-1.1532466.6129497v-.5093526h-.85669748v4.1266187h.86493495v-2.2705036c-.03725053-.2857164.04912734-.5739465.23556184-.7860347.1864345-.2120881.45346562-.3258967.72822283-.3103681.56838582 0 .85669747.3884892.85669747 1.0877697v2.2964029h.86493496v-2.2877698c-.03572199-.2853915.05118405-.5726877.23727289-.7843826.18608884-.211695.45218862-.3259788.72651177-.3120202.58486078 0 .86493495.3884892.86493495 1.0877697v2.2964029zm12.79691858-4.1266187h-1.4086084v-1.2517985h-.8649349v1.2517985h-.7825602v.8201439h.7990351v1.8992806c0 .9582733.3542115 1.5280575 1.367421 1.5280575.3785361.0013326.749737-.1093908 1.0708719-.3194244l-.2471243-.7683454c-.2297419.1436157-.4904878.2238141-.7578478.2330936-.4118738 0-.5683858-.276259-.5683858-.6906475v-1.8820144h1.4003709zm7.306641-.1035971c-.4254997-.0131148-.8237546.218764-1.037922.6043166v-.5007195h-.84846v4.1266187h.8566975v-2.313669c0-.6820144.2800742-1.0618705.8237476-1.0618705.1832361-.0026268.3651735.0325747.5354359.1035971l.2635992-.8633094c-.1956516-.0733536-.4017808-.1113047-.6095732-.1122302zm-11.046455.4316547c-.4849299-.3021682-1.0424732-.4519939-1.6063078-.4316547-.9967345 0-1.6474951.5007194-1.6474951 1.3208633 0 .6733813.4777736 1.0877698 1.3591835 1.2172662l.4118738.0604316c.4695361.0690648.6919479.1985612.6919479.4316547 0 .3194245-.313024.5007194-.8978848.5007194-.4704412.0142715-.9317808-.1377713-1.3097587-.4316546l-.4118738.6992805c.499032.3651758 1.0967465.5527994 1.7051575.5352518 1.1367717 0 1.7957697-.5611511 1.7957697-1.3467626s-.5189609-1.1050359-1.3756584-1.2345323l-.4118738-.0604317c-.3706864-.0517985-.6672355-.1294964-.6672355-.4057554s.2800741-.4834532.7496103-.4834532c.4339813.0052835.8594141.1271532 1.2356213.3539568zm22.9454887-.4316547c-.4254997-.0131148-.8237546.218764-1.037922.6043166v-.5007195h-.84846v4.1266187h.8566975v-2.313669c0-.6820144.2800742-1.0618705.8237476-1.0618705.1832361-.0026268.3651735.0325747.5354359.1035971l.2635992-.8633094c-.1956515-.0733536-.4017808-.1113047-.6095732-.1122302zm-11.0382175 2.1582734c-.0206029.5863747.1955185 1.1547032.5953157 1.5654857.3997972.4107824.9462545.625986 1.5052406.5927876.5143804.0274273 1.0198959-.1481439 1.4168458-.4920863l-.4118738-.7251798c-.2961492.236681-.6572753.3668746-1.0296844.371223-.6566501-.0556821-1.1624774-.6304276-1.1624774-1.3208633s.5058273-1.2651813 1.1624774-1.3208633c.3724091.0043484.7335352.134542 1.0296844.371223l.4118738-.7251798c-.3969499-.3439425-.9024654-.5195136-1.4168458-.4920864-.5589861-.0331983-1.1054434.1820053-1.5052406.5927877s-.6159186.9791109-.5953157 1.5654857zm8.0233014 0v-2.0546763h-.8566975v.5007195c-.2951474-.3980072-.7549744-.622899-1.2356214-.6043166-1.137358 0-2.0593689.9662919-2.0593689 2.1582734 0 1.1919814.9220109 2.1582733 2.0593689 2.1582733.480647.0185824.940474-.2063093 1.2356214-.6043165v.5007194h.8566975zm-3.1879031 0c.0380962-.6774092.5858665-1.1986582 1.232899-1.1732061.6470326.0254521 1.1559781.5882688 1.1455139 1.266765s-.5364995 1.2237807-1.183979 1.2273044c-.3296888.0043719-.6461375-.135765-.8729408-.3865751s-.3433474-.5894978-.3214931-.9342882zm-10.3380321-2.1582734c-1.1373581.0166878-2.0464608.9965077-2.0305378 2.1884892s.9508421 2.1447453 2.0882001 2.1280575c.5925791.0318773 1.1753253-.1681111 1.635139-.561151l-.4118738-.6647482c-.3252312.2733577-.7281509.4252535-1.1450092.4316546-.5888286.053072-1.1109964-.3946745-1.177959-1.0100719h2.9243039c0-.1122302 0-.2244604 0-.3453237 0-1.294964-.7660852-2.1582734-1.869907-2.1582734zm0 .8028777c.2589051-.0057849.5093931.0964877.6963299.2843067.1869367.187819.2950001.4457902.3004047.7171321h-2.059369c.0310258-.5763352.4956811-1.0211277 1.0461594-1.0014388zm21.4627431 1.3640288v-3.7208633h-.8237476v2.1582734c-.2951474-.3980072-.7549744-.622899-1.2356214-.6043166-1.137358 0-2.0593689.9662919-2.0593689 2.1582734 0 1.1919814.9220109 2.1582733 2.0593689 2.1582733.480647.0185824.940474-.2063093 1.2356214-.6043165v.5007194h.8237476zm1.429202 1.4633093c.0535489-.0006876.1067118.0095759.156512.0302158.0473007.0202291.0905977.0495042.1276809.086331.036191.0372178.0655137.0811192.0864935.1294964.0421599.1018909.0421599.2175335 0 .3194244-.0209798.0483771-.0503025.0922786-.0864935.1294964-.0370832.0368268-.0803802.0661019-.1276809.086331-.0493085.0228022-.1026166.034564-.156512.0345323-.1593747-.0012589-.3037517-.0987704-.3706864-.2503597-.0416717-.1019964-.0416717-.217428 0-.3194244.0209797-.0483772.0503025-.0922786.0864935-.1294964.0370832-.0368268.0803801-.0661019.1276809-.086331.0536465-.0223647.1111802-.0326593.1688682-.0302158zm0 .7294964c.0411089.0002617.0818085-.0085633.1194434-.0258993.0354361-.0165809.0675738-.0400113.094731-.0690647.1067976-.1221182.1067976-.3095365 0-.4316547-.0270925-.0291336-.0592457-.0525753-.094731-.0690647-.037672-.0172138-.0783467-.0260334-.1194434-.0258993-.0410612.0002274-.0816671.0090321-.1194434.0258993-.037005.0159021-.0706108.039382-.0988497.0690647-.1067976.1221182-.1067976.3095365 0 .4316547.0283083.029594.0618962.0530613.0988497.0690647.0415538.0187804.0865766.0276276.1317996.0258993zm.0247124-.5136691c.038449-.0019541.0763371.0102637.1070872.0345324.0255784.0221853.0393799.0559355.0370686.0906475.0011957.0289879-.0092628.0571727-.0288311.0776978-.023873.0227249-.0543276.0364037-.0864935.038849l.1194434.142446h-.094731l-.1112059-.142446h-.0370686v.142446h-.0782561v-.3798561zm-.0906122.0733813v.1035972h.0906122c.0161243.0050382.0333006.0050382.0494249 0 .0058745-.0122179.0058745-.0266311 0-.038849.0058745-.0122178.0058745-.026631 0-.0388489-.0161243-.0050382-.0333006-.0050382-.0494249 0zm-4.5306117-1.7525179c.0380963-.6774093.5858666-1.1986582 1.2328991-1.1732061.6470326.0254521 1.1559781.5882688 1.1455139 1.266765s-.5364995 1.2237807-1.183979 1.2273044c-.3296889.0043719-.6461376-.135765-.8729408-.3865751-.2268033-.2508101-.3433474-.5894978-.3214932-.9342882zm-28.9258961 0v-2.0633094h-.8566974v.5007195c-.2951474-.3980072-.7549745-.622899-1.2356214-.6043166-1.1373581 0-2.05936893.9662919-2.05936893 2.1582734 0 1.1919814.92201083 2.1582733 2.05936893 2.1582733.4806469.0185824.940474-.2063093 1.2356214-.6043165v.5007194h.8566974zm-3.1879031 0c.0380963-.6774093.5858666-1.1986582 1.2328991-1.1732061.6470326.0254521 1.1559781.5882688 1.1455139 1.266765s-.5364995 1.2237807-1.183979 1.2273044c-.3311096.0068125-.6497614-.132256-.8783914-.3833545s-.3462682-.5911961-.32428-.9375088z" fill="#231f20"/><path d="m17.7246753 3.31088435h13.0909091v23.87632655h-13.0909091z" fill="#ff5f00"/><path d="m18.5558442 15.2511565c-.0048945-4.6599149 2.1023766-9.06315824 5.7142857-11.94027215-6.1341131-4.89249516-14.94294556-4.17986093-20.23588662 1.63708251s-5.29294106 14.78521804 0 20.60216154c5.29294106 5.8169434 14.10177352 6.5295777 20.23588662 1.6370825-3.61076-2.8762006-5.7179024-7.2776197-5.7142857-11.9360544z" fill="#eb001b"/><g fill="#f79e1b"><path d="m48.4779221 15.2511565c-.0001336 5.8133985-3.27089 11.1164103-8.4231666 13.656826-5.1522767 2.5404156-11.2815234 1.8722316-15.7846256-1.7207716 3.6091845-2.8786424 5.7164855-7.2794763 5.7164855-11.9381633 0-4.6586869-2.107301-9.05952089-5.7164855-11.93816325 4.5031022-3.59300326 10.6323489-4.26118721 15.7846256-1.72077157 5.1522766 2.54041565 8.423033 7.84342747 8.4231666 13.65682602z"/><path d="m47.0483117 24.9804082v-.7575511h.1953247v-.1567347h-.4945455v.1567347h.2119481v.7575511zm.96 0v-.9142858h-.1496104l-.1745455.6530613-.1745454-.6530613h-.132987v.9142858h.1080519v-.6857143l.1620779.5942857h.1122078l.162078-.5942857v.6922449z"/></g></g></svg>