<svg height="40" viewBox="0 0 135 40" width="135" xmlns="http://www.w3.org/2000/svg" xmlns:xlink="http://www.w3.org/1999/xlink"><linearGradient id="a" x1="91.536154%" x2="-37.559231%" y1="4.8388%" y2="71.9684%"><stop offset="0" stop-color="#00a0ff"/><stop offset=".00657445" stop-color="#00a1ff"/><stop offset=".2601" stop-color="#00beff"/><stop offset=".5122" stop-color="#00d2ff"/><stop offset=".7604" stop-color="#00dfff"/><stop offset="1" stop-color="#00e3ff"/></linearGradient><linearGradient id="b" x1="107.728079%" x2="-130.665025%" y1="49.428235%" y2="49.428235%"><stop offset="0" stop-color="#ffe000"/><stop offset=".4087" stop-color="#ffbd00"/><stop offset=".7754" stop-color="#ffa500"/><stop offset="1" stop-color="#ff9c00"/></linearGradient><linearGradient id="c" x1="86.389222%" x2="-49.888024%" y1="17.815046%" y2="194.392791%"><stop offset="0" stop-color="#ff3a44"/><stop offset="1" stop-color="#c31162"/></linearGradient><linearGradient id="d" x1="-18.579042%" x2="42.27485%" y1="-54.526654%" y2="24.690102%"><stop offset="0" stop-color="#32a071"/><stop offset=".0685" stop-color="#2da771"/><stop offset=".4762" stop-color="#15cf74"/><stop offset=".8009" stop-color="#06e775"/><stop offset="1" stop-color="#00f076"/></linearGradient><g fill="none" fill-rule="evenodd"><g><path d="m130 40h-125c-2.8 0-5-2.2-5-5v-30c0-2.8 2.2-5 5-5h125c2.8 0 5 2.2 5 5v30c0 2.7-2.2 5-5 5z" fill="#000"/><path d="m130 .8c2.3 0 4.2 1.9 4.2 4.2v30c0 2.3-1.9 4.2-4.2 4.2h-125c-2.3 0-4.2-1.9-4.2-4.2v-30c0-2.3 1.9-4.2 4.2-4.2zm0-.8h-125c-2.8 0-5 2.2-5 5v30c0 2.8 2.2 5 5 5h125c2.8 0 5-2.2 5-5v-30c0-2.7-2.2-5-5-5z" fill="#a6a6a6" fill-rule="nonzero"/><path d="m68.1 21.8c-2.4 0-4.3 1.8-4.3 4.3 0 2.4 1.9 4.3 4.3 4.3s4.3-1.8 4.3-4.3c0-2.6-1.9-4.3-4.3-4.3zm0 6.8c-1.3 0-2.4-1.1-2.4-2.6s1.1-2.6 2.4-2.6 2.4 1 2.4 2.6c0 1.5-1.1 2.6-2.4 2.6zm-9.3-6.8c-2.4 0-4.3 1.8-4.3 4.3 0 2.4 1.9 4.3 4.3 4.3s4.3-1.8 4.3-4.3c0-2.6-1.9-4.3-4.3-4.3zm0 6.8c-1.3 0-2.4-1.1-2.4-2.6s1.1-2.6 2.4-2.6 2.4 1 2.4 2.6c0 1.5-1.1 2.6-2.4 2.6zm-11.1-5.5v1.8h4.3c-.1 1-.5 1.8-1 2.3-.6.6-1.6 1.3-3.3 1.3-2.7 0-4.7-2.1-4.7-4.8s2.1-4.8 4.7-4.8c1.4 0 2.5.6 3.3 1.3l1.3-1.3c-1.1-1-2.5-1.8-4.5-1.8-3.6 0-6.7 3-6.7 6.6s3.1 6.6 6.7 6.6c2 0 3.4-.6 4.6-1.9 1.2-1.2 1.6-2.9 1.6-4.2 0-.4 0-.8-.1-1.1zm45.4 1.4c-.4-1-1.4-2.7-3.6-2.7s-4 1.7-4 4.3c0 2.4 1.8 4.3 4.2 4.3 1.9 0 3.1-1.2 3.5-1.9l-1.4-1c-.5.7-1.1 1.2-2.1 1.2s-1.6-.4-2.1-1.3l5.7-2.4zm-5.8 1.4c0-1.6 1.3-2.5 2.2-2.5.7 0 1.4.4 1.6.9zm-4.7 4.1h1.9v-12.5h-1.9zm-3-7.3c-.5-.5-1.3-1-2.3-1-2.1 0-4.1 1.9-4.1 4.3s1.9 4.2 4.1 4.2c1 0 1.8-.5 2.2-1h.1v.6c0 1.6-.9 2.5-2.3 2.5-1.1 0-1.9-.8-2.1-1.5l-1.6.7c.5 1.1 1.7 2.5 3.8 2.5 2.2 0 4-1.3 4-4.4v-7.6h-1.8zm-2.2 5.9c-1.3 0-2.4-1.1-2.4-2.6s1.1-2.6 2.4-2.6 2.3 1.1 2.3 2.6-1 2.6-2.3 2.6zm24.4-11.1h-4.5v12.5h1.9v-4.7h2.6c2.1 0 4.1-1.5 4.1-3.9s-2-3.9-4.1-3.9zm.1 6h-2.7v-4.3h2.7c1.4 0 2.2 1.2 2.2 2.1-.1 1.1-.9 2.2-2.2 2.2zm11.5-1.8c-1.4 0-2.8.6-3.3 1.9l1.7.7c.4-.7 1-.9 1.7-.9 1 0 1.9.6 2 1.6v.1c-.3-.2-1.1-.5-1.9-.5-1.8 0-3.6 1-3.6 2.8 0 1.7 1.5 2.8 3.1 2.8 1.3 0 1.9-.6 2.4-1.2h.1v1h1.8v-4.8c-.2-2.2-1.9-3.5-4-3.5zm-.2 6.9c-.6 0-1.5-.3-1.5-1.1 0-1 1.1-1.3 2-1.3.8 0 1.2.2 1.7.4-.2 1.2-1.2 2-2.2 2zm10.5-6.6-2.1 5.4h-.1l-2.2-5.4h-2l3.3 7.6-1.9 4.2h1.9l5.1-11.8zm-16.8 8h1.9v-12.5h-1.9z" fill="#fff" fill-rule="nonzero"/><g transform="translate(9 7)"><path d="m1.4.5c-.3.3-.5.8-.5 1.4v22.1c0 .6.2 1.1.5 1.4l.1.1 12.4-12.4v-.1-.1z" fill="url(#a)"/><path d="m18 17.3-4.1-4.1v-.2-.1l4.1-4.1.1.1 4.9 2.8c1.4.8 1.4 2.1 0 2.9z" fill="url(#b)"/><path d="m18.1 17.2-4.2-4.2-12.5 12.5c.5.5 1.2.5 2.1.1z" fill="url(#c)"/><path d="m18.1 8.8-14.6-8.3c-.9-.5-1.6-.4-2.1.1l12.5 12.4z" fill="url(#d)"/><g fill="#000" transform="translate(0 17)"><path d="m18 .1-14.5 8.2c-.8.5-1.5.4-2 0l-.1.1.1.1c.5.4 1.2.5 2 0z" opacity=".2"/><path d="m1.4 8.3c-.3-.3-.4-.8-.4-1.4v.1c0 .6.2 1.1.5 1.4v-.1z" opacity=".12"/></g><path d="m23 14.3-5 2.8.1.1 4.9-2.8c.7-.4 1-.9 1-1.4 0 .5-.4.9-1 1.3z" fill="#000" opacity=".12"/><path d="m3.5.6 19.5 11.1c.6.4 1 .8 1 1.3 0-.5-.3-1-1-1.4l-19.5-11.1c-1.4-.8-2.5-.1-2.5 1.5v.1c0-1.6 1.1-2.3 2.5-1.5z" fill="#fff" opacity=".25"/></g></g><g fill="#fff" stroke="#fff" stroke-width=".2" transform="translate(41 6)"><path d="m1.1 8.3h-.7v-2h.6c.5-.4.8-1.2.8-2.3v-3h4v5.3h.7v2h-.7v-1.3h-4.6v1.3zm1.4-4.3c0 .9-.2 1.7-.6 2.3h3v-4.5h-2.5v2.2z" fill-rule="nonzero"/><path d="m12.4 6.2c-.6.6-1.3.9-2.2.9s-1.6-.3-2.2-.9-.9-1.3-.9-2.2.3-1.6.9-2.2 1.3-.9 2.2-.9 1.6.3 2.2.9.9 1.3.9 2.2-.3 1.6-.9 2.2zm-3.8-.5c.4.4 1 .7 1.6.7s1.2-.2 1.6-.7c.4-.4.7-1 .7-1.7s-.2-1.3-.7-1.7c-.4-.4-1-.7-1.6-.7s-1.2.2-1.6.7c-.4.4-.7 1-.7 1.7s.2 1.3.7 1.7z" fill-rule="nonzero"/><path d="m17.2 7.1c-.9 0-1.6-.3-2.2-.9s-.9-1.3-.9-2.2.3-1.6.9-2.2 1.3-.9 2.2-.9 1.6.3 2.2 1l-.5.5c-.4-.5-1-.8-1.7-.8s-1.2.2-1.7.7c-.5.4-.7 1-.7 1.7s.2 1.3.7 1.7c.4.4 1 .7 1.7.7s1.3-.3 1.8-.9l.5.5c-.3.3-.6.6-1 .8s-.8.3-1.3.3z"/><path d="m22.7 7h-.8v-5.3h-1.7v-.7h4.1v.7h-1.7v5.3z"/><path d="m29.6 1-2.3 5.1c-.3.7-.8 1.1-1.4 1.1-.2 0-.4 0-.6-.1l.2-.7c.1.1.3.1.4.1.2 0 .3 0 .4-.1s.2-.2.3-.4l.2-.5-2-4.4h.9l1.5 3.4 1.4-3.4h1z"/><path d="m30.5 7v-6h4.3v6h-.8v-5.3h-2.8v5.3z"/><path d="m36.2 7v-6h.8v2.6h3v-2.6h.8v6h-.8v-2.7h-3v2.7z"/><g fill-rule="nonzero"><path d="m47.1 6.2c-.6.6-1.3.9-2.2.9s-1.6-.3-2.2-.9-.9-1.3-.9-2.2.3-1.6.9-2.2 1.3-.9 2.2-.9 1.6.3 2.2.9.9 1.3.9 2.2c-.1.9-.4 1.6-.9 2.2zm-3.9-.5c.4.4 1 .7 1.6.7s1.2-.2 1.6-.7c.4-.4.7-1 .7-1.7s-.2-1.3-.7-1.7c-.4-.4-1-.7-1.6-.7s-1.2.2-1.6.7c-.4.4-.7 1-.7 1.7s.3 1.3.7 1.7z"/><path d="m51.1 7v-6h2.2c.5 0 .9.2 1.2.5s.5.7.5 1.2c0 .3-.1.5-.2.8-.1.2-.3.4-.6.5.3.1.5.3.7.5s.3.5.3.9c0 .5-.2.9-.5 1.2-.4.3-.8.5-1.3.5h-2.3zm.8-3.4h1.4c.3 0 .5-.1.7-.3s.3-.4.3-.6-.1-.4-.3-.6-.4-.3-.7-.3h-1.4zm0 2.7h1.6c.3 0 .5-.1.7-.3s.3-.4.3-.7c0-.2-.1-.5-.3-.7s-.4-.3-.7-.3h-1.5v2z"/></g></g></g></svg>