<svg height="40" viewBox="0 0 51 40" width="51" xmlns="http://www.w3.org/2000/svg"><g fill="none" fill-rule="evenodd" transform="translate(0 4)"><path d="m0 32.4545455h51v-32.4545455h-51z" fill="#fffffe"/><path d="m.92727273 31.5272727h49.14545457v-4.6363636h-49.14545457z" fill="#f1ad2b"/><g fill="#182e66"><path d="m.92727273 4.63636364h49.14545457v-4.63636364h-49.14545457z"/><path d="m24.8467664 9.48570911-2.6018798 11.65848989h-3.147031l2.6021161-11.65848989zm13.2396578 7.52822829 1.6567303-4.3783629.9529509 4.3783629zm3.5129869 4.1302616h2.9096798l-2.5423056-11.65848989h-2.6841489c-.6051982 0-1.1148887.33623941-1.340656.85464629l-4.7222014 10.8038436h3.3051864l.6560255-1.7410133h4.0368616zm-8.2155666-3.8060308c.0137115-3.0766812-4.4378055-3.2472933-4.4082548-4.622159.0096927-.4178069.4252937-.8625765 1.3345095-.9763178.450589-.0557378 1.6940824-.1008265 3.1037688.5215789l.5512978-2.47330824c-.7574434-.2623755-1.7316708-.51523479-2.9437222-.51523479-3.1110974 0-5.2997402 1.58376923-5.3172342 3.85361183-.0198581 1.6784781 1.5635865 2.6144653 2.7538885 3.1734294 1.2271814.5711991 1.6385271.9377998 1.6326169 1.4482765-.0085106.7821418-.9789554 1.1285771-1.8820247 1.141492-1.5832082.0237905-2.5006982-.4098768-3.2321371-.7368265l-.5711558 2.5560086c.7364033.3228714 2.0936077.6042793 3.4985661.6185536 3.307314 0 5.4701886-1.5651899 5.4798812-3.9891045zm-13.0337486-7.85245909-5.0990319 11.65848989h-3.3262264l-2.50944519-9.3043609c-.15200879-.5718788-.28463231-.7823683-.74727803-1.0238988-.75673424-.394243-2.00613771-.7626562-3.10447802-.99172501l.07423135-.33850518h5.35505909c.6822665 0 1.295739.43502673 1.4517667 1.18816679l1.325526 6.7467661 3.2737444-7.93493289z"/></g></g></svg>