<?xml version="1.0" encoding="UTF-8"?>
<svg width="24px" height="24px" viewBox="0 0 24 24" version="1.1" xmlns="http://www.w3.org/2000/svg" xmlns:xlink="http://www.w3.org/1999/xlink">
    <!-- Generator: Sketch 49 (51002) - http://www.bohemiancoding.com/sketch -->
    <title>Доход от друзей Copy</title>
    <desc>Created with Sketch.</desc>
    <defs></defs>
    <g id="HEADER" stroke="none" stroke-width="1" fill="none" fill-rule="evenodd">
        <path d="M10.8285828,10.6952751 C8.05636762,10.6952751 5.80904319,8.4479507 5.80904319,5.67573552 C5.80904319,2.90352035 8.05636762,0.656195918 10.8285828,0.656195918 C13.600798,0.656195918 15.8481224,2.90352035 15.8481224,5.67573552 C15.8481224,8.4479507 13.600798,10.6952751 10.8285828,10.6952751 Z M10.8285828,9.50990429 C12.9461357,9.50990429 14.6627516,7.79328846 14.6627516,5.67573552 C14.6627516,3.55818258 12.9461357,1.84156676 10.8285828,1.84156676 C8.71102986,1.84156676 6.99441403,3.55818258 6.99441403,5.67573552 C6.99441403,7.79328846 8.71102986,9.50990429 10.8285828,9.50990429 Z M12.7527887,20.1343543 C13.0801199,20.1343543 13.3454742,20.3997086 13.3454742,20.7270398 C13.3454742,21.0543709 13.0801199,21.3197252 12.7527887,21.3197252 L3.29693858,21.3197252 C1.99165384,21.3197252 0.933511487,20.2615828 0.933511487,18.9562981 C0.933511487,18.7838569 0.952383889,18.6119336 0.989791634,18.4435988 L1.39630259,16.6142995 C1.97387478,14.0152246 4.27912689,12.1660168 6.94160316,12.1660168 L12.7527887,12.1660168 C13.0801199,12.1660168 13.3454742,12.4313711 13.3454742,12.7587022 C13.3454742,13.0860333 13.0801199,13.3513876 12.7527887,13.3513876 L6.94160316,13.3513876 C4.8347086,13.3513876 3.01049586,14.8147193 2.55344626,16.8714425 L2.14693531,18.7007418 C2.12828932,18.7846487 2.11888232,18.8703443 2.11888232,18.9562981 C2.11888232,19.6069206 2.64631608,20.1343543 3.29693858,20.1343543 L12.7527887,20.1343543 Z M22.0992117,17.3431152 C21.7014276,17.0364347 21.2474528,16.8373727 20.5739502,16.6372876 C20.5374725,16.6264053 20.5083373,16.6184677 20.440435,16.6005378 C20.4211513,16.5954406 20.4211513,16.5954406 20.4016214,16.5902347 C20.3791444,16.5841935 20.3791444,16.5841935 20.3563206,16.5778945 L20.2465519,16.4333904 L20.2465519,12.7874457 L20.4197706,12.8145854 C20.9469351,12.8971812 21.3718664,13.0712008 21.6685982,13.3147496 C21.8555353,13.4638923 22.0059803,13.6570304 22.1087075,13.8802922 C22.2072542,14.1028321 22.2567853,14.3456189 22.2537215,14.5888754 C22.2537215,14.8217305 22.4306722,15.0075931 22.6451696,15.0075931 C22.8596671,15.0075931 23.0366178,14.8217305 23.036622,14.5877453 C23.0394228,14.2160084 22.9627143,13.8484277 22.8124668,13.5127515 C22.5877906,13.0156068 22.1861836,12.6052746 21.6595082,12.3350454 C21.299442,12.1505043 20.8714854,12.0284466 20.377243,11.9672645 L20.2456708,11.8184008 L20.2456708,11.3172443 C20.2456708,11.0843892 20.0687202,10.8985265 19.8542227,10.8985265 C19.6397252,10.8985265 19.4627746,11.0843892 19.4627746,11.3172443 L19.4627746,11.7860084 L19.3233208,11.9356372 C18.9768778,11.9600552 18.6355337,12.0366922 18.3108016,12.1628045 C17.7597621,12.381672 17.3232556,12.7579304 17.0448469,13.2262823 C16.8010706,13.6337038 16.6709917,14.1052297 16.6696249,14.5865616 C16.6696249,15.0463614 16.7728585,15.4594287 16.968189,15.7908939 C17.1352578,16.0701106 17.3589487,16.3066941 17.6240951,16.4844254 C18.0169048,16.7525918 18.4474615,16.9226331 19.135511,17.115839 L19.3491825,17.172757 L19.4605718,17.3177026 L19.4605718,21.2208737 L19.2933553,21.2015535 C18.7570144,21.1395846 18.3174756,20.9592761 18.0082017,20.6835456 C17.6411146,20.3521041 17.4563545,19.9278387 17.4520805,19.4009958 C17.4520805,19.1681407 17.2751299,18.982278 17.0606324,18.982278 C16.8461349,18.982278 16.6691843,19.1681407 16.6691751,19.402655 C16.6609639,20.1449505 16.9692553,20.8515797 17.508767,21.3286767 C17.9706781,21.7392429 18.5941825,21.9878231 19.3237421,22.0521283 L19.4605718,22.201549 L19.4605718,22.6957643 C19.4605718,22.9286194 19.6375224,23.114482 19.8520199,23.114482 C20.0665174,23.114482 20.243468,22.9286194 20.243468,22.6957643 L20.243468,22.1811881 L20.3776985,22.0320193 C21.0169371,21.9644415 21.5481974,21.7986777 21.9866324,21.5125736 C22.3094976,21.3055609 22.5752452,21.0126743 22.7567781,20.6636228 C22.9421357,20.3038546 23.0370183,19.87683 23.0361772,19.400533 C23.0361772,18.9067109 22.9370822,18.4698606 22.7452921,18.107601 C22.5852829,17.8061406 22.364744,17.5452604 22.0992117,17.3431152 Z M19.271436,16.2862999 C18.6718546,16.1183588 18.236333,15.9348348 17.9624549,15.7160391 C17.8068791,15.5987104 17.67991,15.4450364 17.5905157,15.2652592 C17.5003944,15.076509 17.454733,14.860311 17.4538433,14.5852492 C17.4549865,14.1420655 17.6198154,13.716219 17.9158085,13.3953478 C18.1054444,13.1956574 18.33492,13.0420849 18.5879142,12.9457137 C18.8168098,12.8584258 19.0555685,12.8026047 19.2982148,12.7796629 L19.462334,12.9289969 L19.462334,16.1418589 L19.312334,16.2918589 L19.271436,16.2862999 Z M21.7304979,20.6853634 C21.5175245,20.8654519 21.2292977,21.0045876 20.8796234,21.0961599 C20.7261361,21.1349849 20.5705876,21.1642522 20.4137941,21.1838072 L20.2452303,21.2048301 L20.2452303,17.4083409 L20.4387932,17.4670874 C20.8202417,17.5828573 21.1123259,17.6964934 21.3491988,17.8293378 C21.6484367,17.9955879 21.8623872,18.1848114 22.0092734,18.4195254 C22.1727099,18.6806857 22.2523999,18.9850291 22.2523999,19.4000703 C22.2523999,19.7461823 22.1908167,20.0254918 22.0707748,20.2605236 C21.9854119,20.4250064 21.8695174,20.5697061 21.7304979,20.6853634 Z" id="Доход-от-друзей-Copy" fill="#000000" fill-rule="nonzero"></path>
    </g>
</svg>