<svg height="40" viewBox="0 0 120 40" width="120" xmlns="http://www.w3.org/2000/svg"><g fill="none" fill-rule="evenodd"><g><path d="m110.13477 0h-100.60009c-.3667 0-.729 0-1.09473.002-.30615.002-.60986.00781-.91895.0127-.67148632.0079018-1.34139353.06697626-2.0039.17671-.66157592.11212263-1.30242748.32350574-1.90088.627-.59772059.30606171-1.14387498.70375753-1.61865 1.17866-.4772675.47356699-.87510682 1.02094638-1.17822 1.62109-.30394976.59894912-.5147095 1.2407783-.625 1.90332-.11133906.66170491-.17125162 1.33104054-.1792 2.002-.00928.3066-.01026.61422-.01515.92086v23.11426c.00489.3105.00587.6113.01515.9219.00795082.6709262.06786338 1.3402284.1792 2.0019.10998595.662929.32075816 1.3051266.625 1.9043.30297555.5982029.70087081 1.1433662 1.17822 1.6143.47297482.477014 1.01948224.8749804 1.61865 1.1787.59844797.3043065 1.23923044.5169478 1.90088.6308.6626191.1088547 1.33245741.1679532 2.0039.1768.30909.0068.6128.0107.91895.0107.36572.002.72805.002 1.09473.002h100.60009c.3594 0 .7246 0 1.084-.002.3047 0 .6172-.0039.9219-.0107.670173-.0083763 1.33875-.0674785 2-.1768.663784-.1146536 1.306864-.3272386 1.9082-.6308.598627-.3038954 1.14463-.7018509 1.6172-1.1787.476118-.4727782.874862-1.0175427 1.1816-1.6143.301959-.5996092.510725-1.2417555.6191-1.9043.111515-.6617624.173553-1.3309157.1856-2.0019.0039-.3106.0039-.6114.0039-.9219.0078-.3633.0078-.7246.0078-1.0938v-20.92867c0-.36621 0-.72949-.0078-1.09179 0-.30664 0-.61426-.0039-.9209-.012044-.67101756-.074083-1.34020433-.1856-2.002-.108677-.6621584-.317431-1.30393672-.6191-1.90332-.617276-1.20292392-1.596097-2.1820946-2.7988-2.7998-.601338-.30275262-1.244487-.51407959-1.9082-.627-.661135-.11021722-1.329782-.16931224-2-.17676-.3047-.00488-.6172-.01074-.9219-.01269-.3594-.002-.7246-.002-1.084-.002z" fill="#a6a6a6"/><path d="m8.44483 39.125c-.30468 0-.602-.0039-.90429-.0107-.62621823-.0081593-1.25097283-.062675-1.86914-.1631-.5764097-.0992718-1.13479576-.2839355-1.65674-.5479-.5171583-.2617773-.98884823-.6050271-1.397-1.0166-.41405967-.4067247-.75878327-.878456-1.02051-1.3965-.26461074-.5214109-.44773712-1.0803004-.543-1.6572-.10287564-.6198851-.15853563-1.2466868-.1665-1.875-.00634-.2109-.01464-.9131-.01464-.9131v-23.10056s.00884-.69141.01469-.89454c.00762583-.62731795.06296215-1.2531469.16553-1.87207.09543872-.57847992.27870687-1.13898113.54346-1.6621.26076482-.51768615.60357458-.98976971 1.01514-1.39795.41110283-.41205858.88430161-.75707588 1.40234-1.02247.52074467-.2631164 1.07807545-.44647745 1.65332-.54394.62019733-.10143386 1.24712084-.15627392 1.87551-.16406l.90232-.01221h102.76855l.9131.0127c.622673.0073992 1.243902.06175001 1.8584.16259.581068.09868507 1.144207.28332553 1.6709.54785 1.037818.53484605 1.882272 1.38102295 2.415 2.41993.260527.51950756.440969 1.07543676.5352 1.64892.103789.62400138.161877 1.25474834.1738 1.88721.0029.2832.0029.5874.0029.89014.0079.375.0079.73193.0079 1.09179v20.92867c0 .3633 0 .7178-.0079 1.0752 0 .3252 0 .6231-.0039.9297-.011665.6211757-.068784 1.2406642-.1709 1.8535-.09331.5810612-.27544 1.1443131-.54 1.67-.263577.5124211-.606321.9800662-1.0156 1.3857-.408519.4137846-.881041.7590427-1.3994 1.0225-.525234.2659937-1.087544.4513403-1.668.5498-.61812.100961-1.242935.1554802-1.8692.1631-.2929.0068-.5996.0107-.8974.0107l-1.084.002z" fill="#000"/></g><g fill="#fff"><g><g transform="translate(9 8)"><path d="m15.76888 12.30068c.021857-1.6964709.9112429-3.26349389 2.35656-4.15206-.9159274-1.30810723-2.395048-2.10774165-3.99116-2.15768-1.67924-.17626-3.30719 1.00483-4.1629 1.00483-.87227 0-2.18977-.98733-3.6085-.95814-1.86667874.06030842-3.56474283 1.09589548-4.47292 2.72787-1.934 3.34842-.49141 8.26947 1.3612 10.97608.9269 1.32535 2.01018 2.8058 3.42763 2.7533 1.38706-.05753 1.9051-.88448 3.5794-.88448 1.65876 0 2.14479.88448 3.591.8511 1.48838-.02416 2.42613-1.33124 3.32051-2.66914.6659761-.9443603 1.1784437-1.9880841 1.51842-3.09251-1.7677434-.7476687-2.9171768-2.4798157-2.91924-4.39917z"/><path d="m13.03725 4.21089c.8115266-.97420809 1.211335-2.22638755 1.11452-3.49062-1.2398322.13022049-2.3850898.72277968-3.20758 1.65961-.8121713.92430903-1.22361537 2.13355268-1.14371 3.36139 1.2564568.01293677 2.4494361-.55111678 3.23677-1.53038z"/></g><g transform="translate(34 17)"><g fill-rule="nonzero"><path d="m8.30227 10.13965h-4.7334l-1.13672 3.35645h-2.00488l4.4834-12.418h2.083l4.4834 12.418h-2.03907zm-4.24317-1.54883h3.752l-1.84961-5.44727h-.05176z"/><path d="m21.15969 8.96973c0 2.81348-1.50586 4.62109-3.77832 4.62109-1.1746147.0614446-2.2810376-.5537893-2.84863-1.584h-.043v4.48438h-1.8584v-12.04882h1.79886v1.50586h.03418c.5928083-1.02375208 1.7004243-1.63872116 2.88281-1.60059 2.29781.00001 3.8125 1.81641 3.8125 4.62208zm-1.91016 0c0-1.833-.94727-3.03809-2.39258-3.03809-1.41992 0-2.375 1.23047-2.375 3.03809 0 1.82422.95508 3.0459 2.375 3.0459 1.44532 0 2.39258-1.19629 2.39258-3.0459z"/><path d="m31.12453 8.96973c0 2.81348-1.50586 4.62109-3.77832 4.62109-1.1746147.0614446-2.2810376-.5537893-2.84863-1.584h-.043v4.48438h-1.8584v-12.04882h1.79882v1.50586h.03418c.5928126-1.02375146 1.7004328-1.63871693 2.88282-1.60058 2.29788 0 3.81253 1.8164 3.81253 4.62207zm-1.91016 0c0-1.833-.94727-3.03809-2.39258-3.03809-1.41992 0-2.375 1.23047-2.375 3.03809 0 1.82422.95508 3.0459 2.375 3.0459 1.44532 0 2.39259-1.19629 2.39259-3.0459z"/></g><path d="m37.71047 10.03613c.1377 1.23145 1.334 2.04 2.96875 2.04 1.56641 0 2.69336-.80859 2.69336-1.91895 0-.96387-.67969-1.541-2.28906-1.93652l-1.60937-.3877c-2.28027-.55078-3.33887-1.61719-3.33887-3.34766 0-2.14258 1.86719-3.61426 4.51855-3.61426 2.624 0 4.42285 1.47168 4.4834 3.61426h-1.876c-.1123-1.23926-1.13672-1.9873-2.63379-1.9873s-2.52148.75684-2.52148 1.8584c0 .87793.6543 1.39453 2.25488 1.79l1.36816.33594c2.54785.60254 3.60645 1.626 3.60645 3.44238 0 2.32324-1.85059 3.77832-4.79395 3.77832-2.75391 0-4.61328-1.4209-4.7334-3.667z"/><path d="m49.34621 2.2998v2.14258h1.72168v1.47168h-1.72168v4.99121c0 .77539.34473 1.13672 1.10156 1.13672.2043914-.0035641.4084521-.0179174.61133-.043v1.46289c-.3402717.0635796-.6861292.0923745-1.03223.08594-1.833 0-2.54785-.68848-2.54785-2.44434v-5.18942h-1.3164v-1.47168h1.31638v-2.14258z"/><path d="m52.065 8.96973c0-2.84863 1.67773-4.63867 4.29395-4.63867 2.625 0 4.29492 1.79 4.29492 4.63867 0 2.85645-1.66113 4.63867-4.29492 4.63867-2.63286 0-4.29395-1.78223-4.29395-4.63867zm6.69531 0c0-1.9541-.89551-3.10742-2.40137-3.10742s-2.40039 1.16211-2.40039 3.10742c0 1.96191.89453 3.10645 2.40039 3.10645s2.40133-1.14454 2.40133-3.10645z" fill-rule="nonzero"/><path d="m62.18606 4.44238h1.77246v1.541h.043c.247176-.99201159 1.1561326-1.67474844 2.17773-1.63574.214164-.00074777.4277372.02251075.63672.06934v1.73828c-.270369-.08261668-.5524104-.12054871-.835-.1123-.5463518-.02216456-1.0750991.19557473-1.4474085.59604597-.3723095.40047125-.5509849.94366477-.4891115 1.48695403v5.37012h-1.8584z"/><path d="m75.3843 10.83691c-.25 1.64355-1.85059 2.77148-3.89844 2.77148-2.63379 0-4.26855-1.76465-4.26855-4.5957 0-2.83984 1.64355-4.68164 4.19043-4.68164 2.50488 0 4.08008 1.7207 4.08008 4.46582v.63672h-6.39453v.1123c-.0597026.6740316.1730416 1.3412294.6390299 1.8318799.4659884.4906505 1.1203076.7574634 1.7965201.7325701.9018423.0844996 1.7521031-.4333623 2.09082-1.27344zm-6.2822376-2.70214 4.5263776-.00001c.0337255-.60566251-.1867435-1.19793692-.6082899-1.63412845-.4215465-.43619154-1.0059493-.67675114-1.6124101-.66372155-.6112582-.00364777-1.1986493.23702463-1.6316145.66852324-.4329652.43149862-.6756292 1.01806968-.6740631 1.62933676z" fill-rule="nonzero"/></g></g><g transform="translate(35 8)"><path d="m1.7383 3.25342h.79785c.27767221.03457816.55715496-.04851511.77083387-.2291773.21367891-.1806622.34208962-.44243651.35416613-.7219927 0-.55029-.41406-.90576-1.11621-.90576-.28428021-.03972228-.57254649.03714826-.79930176.21314583s-.3727448.43617748-.40479824.72142417h-.876c.03047831-.51808936.27482924-1.00022953.6746303-1.33114436s.91911211-.48085671 1.4337697-.41397564c1.1748 0 2.002.65771 2.002 1.60449.00567819.65361189-.44606312 1.22235169-1.084 1.36475v.07031c.76402157.03388791 1.35710429.6786841 1.32715 1.44287-.05486472.53309535-.32208963 1.02163884-.74138027 1.35539946-.41929063.33376063-.9553189.4846168-1.48713973.41853054-.53302677.07267094-1.07270838-.07429784-1.49528642-.40720384-.42257805-.332906-.6917982-.82318812-.74592358-1.35841616h.88965c.05371.5708.57813.939 1.35156.939s1.27832-.41357 1.27832-.99658c0-.59131-.47559-.95557-1.30664-.95557h-.82325z"/><path d="m5.82912 5.42432c0-.81055.60449-1.27783 1.6748-1.34424l1.21973-.07031v-.38867c0-.47559-.31348-.74414-.92187-.74414-.49609 0-.83887.18213-.93848.50049h-.86035c.09082-.77344.81934-1.26953 1.84082-1.26953 1.12891 0 1.76563.562 1.76563 1.51318v3.07666h-.85645v-.63281h-.07031c-.2905514.46212633-.80724636.73221323-1.35254.707-.38226388.03976181-.76350885-.08403934-1.04948419-.34079756-.28597534-.25675821-.44998973-.62250913-.45149581-1.00683244zm2.89453-.38477v-.37646l-1.09965.07031c-.62012.0415-.90137.25244-.90137.64941 0 .40527.35156.64111.835.64111.28619257.0289814.57189343-.05942814.7916964-.24498881s.35488578-.45238245.3743236-.73938119z" fill-rule="nonzero"/><path d="m11.96779 2.94287v3.75488h-.88867v-4.50293h2.96488v.748z"/><path d="m19.42971 4.44434c0 1.43066-.72363 2.32764-1.86035 2.32764-.5697154.03891115-1.110284-.25613634-1.38574-.75635h-.07032v2.1792h-.88867v-6h.85547v.74417h.06641c.2800208-.51699469.8262796-.83332074 1.41406-.81885 1.1455-.00003 1.86914.89303 1.86914 2.32419zm-.91406 0c0-.95117-.4502-1.52588-1.20312-1.52588-.748 0-1.21582.58691-1.21582 1.52979 0 .93848.46777 1.52588 1.21191 1.52588.75683-.00001 1.20703-.57472 1.20703-1.52979z" fill-rule="nonzero"/><path d="m20.6133 8.31055v-.76514c.0961676.01222024.1930661.01776684.29.0166.3920654.02904089.7430959-.24181003.81445-.62842l.06641-.21924-1.62988-4.51953h.96777l1.12895 3.57666h.07031l1.125-3.57666h.94238l-1.67869 4.68897c-.38477 1.0957-.81055 1.44727-1.72852 1.44727-.07423-.00001-.28517-.00831-.36818-.02051z"/><path d="m25.08107 5.41992h.88477c.08691.397.459.604.97949.604.5918 0 .95508-.26074.95508-.666 0-.43408-.32617-.64111-.95508-.64111h-.67383v-.69043h.66211c.53711 0 .81055-.20654.81055-.583 0-.33057-.26465-.583-.81055-.583-.49707 0-.86035.21094-.918.56641h-.85641c.1331987-.84973239.9223556-1.43628207 1.77441-1.31885 1.07031 0 1.68262.48389 1.68262 1.24463.0102985.43657212-.2860837.82089269-.71094.92188v.07031c.5080417.06553119.8866055.50096159.88086 1.01318 0 .856-.72852 1.42236-1.84082 1.42236-.9834-.00003-1.78222-.45071-1.86426-1.36038z"/><path d="m30.06594 6.69775v-4.50293h.88086v3.09718h.07031l2.0752-3.09717h.88086v4.50293h-.88086v-3.11376h-.06641l-2.0791 3.11377z"/><path d="m38.8257 2.94287h-1.418v3.75488h-.88965v-3.75488h-1.418v-.748h3.72565z"/><g fill-rule="nonzero"><path d="m43.61281 5.48193c-.2499153.84929407-1.0719771 1.3978813-1.95215 1.30273-.6004381.01585066-1.1774925-.23303017-1.5780561-.68060806-.4005635-.44757789-.5841407-1.04860441-.5020239-1.64361194-.0799326-.59665952.1029582-1.19864627.5012908-1.65000304.3983326-.45135678.9729112-.70767021 1.5748792-.70253696 1.25293 0 2.00977.856 2.00977 2.27v.3101h-3.17968v.0498c-.0284749.33421959.0855291.66492069.3139124.91059244.2283833.24567176.5499017.38346172.8853076.37940756.4344673.05195005.8572766-.16369928 1.07031-.5459zm-3.126-1.45117h2.27344c.0227035-.30544291-.0845981-.60627612-.2954765-.82840473-.2108784-.2221286-.5057337-.3449071-.8119435-.33809527-.310605-.0042266-.6097191.11733116-.8293223.33703039-.2196032.21969924-.3410301.51886652-.3366677.82946961z"/><path d="m47.38039 2.19482h2.03027c.88086 0 1.39746.44629 1.39746 1.145.0028225.45691069-.3143784.85351399-.76074.95117v.07031c.5461435.03450552.9694738.49089715.96289 1.03809 0 .78564-.59082 1.29834-1.5791 1.29834h-2.05078zm.88086.68212v1.16601h.88086c.53711 0 .79395-.20654.79395-.5874 0-.35107-.22363-.57861-.69531-.57861zm0 1.81935v1.31934h1.05375c.52539 0 .80664-.23193.80664-.65771 0-.45068-.31836-.66162-.918-.66162z"/></g></g></g></g></svg>