<svg height="40" viewBox="0 0 106 40" width="106" xmlns="http://www.w3.org/2000/svg"><g fill="none" transform="translate(0 6)"><path d="m81.8497889 7.18496607h-5.714359c-.3361388 0-.6722775.33613876-.8403469.67227752l-2.3529714 14.79010561c0 .3361387.1680694.5042081.5042082.5042081h3.0252489c.3361387 0 .5042081-.1680694.5042081-.5042081l.6722775-4.2017346c0-.3361387.3361388-.6722775.8403469-.6722775h1.8487632c3.8655958 0 6.0504978-1.8487632 6.5547059-5.5462896.3361388-1.5126244 0-2.85717947-.6722775-3.69752638-1.0084163-.84034691-2.5210407-1.34455505-4.3698039-1.34455505m.6722775 5.54628963c-.3361388 2.0168325-1.8487632 2.0168325-3.3613876 2.0168325h-1.0084163l.6722775-3.8655957c0-.1680694.1680694-.3361388.5042081-.3361388h.3361388c1.0084163 0 2.0168326 0 2.5210407.6722775.3361388.1680694.3361388.6722776.3361388 1.5126245" fill="#139ad6"/><g fill="#263b80" transform="translate(31.723096 7.142949)"><path d="m8.94969457.04201735h-5.71435897c-.33613877 0-.67227753.33613876-.84034691.67227752l-2.35297134 14.79010563c0 .3361387.16806938.5042081.50420814.5042081h2.68911011c.33613876 0 .67227752-.3361388.84034691-.6722775l.67227752-4.0336652c0-.3361387.33613877-.6722775.84034691-.6722775h1.8487632c3.86559576 0 6.05049776-1.84876321 6.55470586-5.5462896.3361388-1.51262444 0-2.85717949-.6722775-3.6975264-1.0084163-.84034691-2.3529713-1.34455505-4.36980393-1.34455505m.67227753 5.54628959c-.33613876 2.01683258-1.8487632 2.01683258-3.36138763 2.01683258h-.84034691l.67227753-3.86559578c0-.16806938.16806938-.33613876.50420814-.33613876h.33613876c1.00841629 0 2.01683258 0 2.52104073.67227753.16806938.16806938.33613876.67227752.16806938 1.51262443"/><path d="m26.2608409 5.42023756h-2.6891101c-.1680694 0-.5042082.16806938-.5042082.33613876l-.1680693.84034691-.1680694-.33613876c-.6722776-.84034691-1.8487632-1.17648567-3.1933183-1.17648567-3.0252489 0-5.714359 2.35297134-6.2185671 5.5462896-.3361388 1.6806938.1680694 3.1933182 1.0084163 4.2017345s2.0168326 1.3445551 3.529457 1.3445551c2.5210407 0 3.8655958-1.5126244 3.8655958-1.5126244l-.1680694.8403469c0 .3361387.1680694.5042081.5042081.5042081h2.5210408c.3361387 0 .6722775-.3361388.8403469-.6722775l1.5126244-9.4118854c-.1680694-.16806938-.5042081-.50420814-.6722775-.50420814m-3.8655958 5.37822024c-.3361388 1.5126244-1.5126244 2.6891101-3.1933182 2.6891101-.840347 0-1.5126245-.3361388-1.8487632-.6722775-.3361388-.5042082-.5042082-1.1764857-.5042082-2.0168326.1680694-1.51262446 1.5126244-2.68911013 3.0252489-2.68911013.8403469 0 1.344555.33613876 1.8487632.67227752.5042081.50420815.6722775 1.34455501.6722775 2.01683261"/></g><path d="m98.9928658 12.5631863h-2.6891101c-.1680694 0-.5042081.1680694-.5042081.3361387l-.1680694.840347-.1680694-.3361388c-.6722775-.8403469-1.8487632-1.1764857-3.1933183-1.1764857-3.0252488 0-5.7143589 2.3529714-6.2185671 5.5462896-.3361387 1.6806938.1680694 3.1933183 1.0084163 4.2017346.8403469 1.0084162 2.0168326 1.344555 3.529457 1.344555 2.5210407 0 3.8655958-1.5126244 3.8655958-1.5126244l-.1680694.8403469c0 .3361387.1680694.5042081.5042082.5042081h2.5210407c.3361388 0 .6722775-.3361387.8403469-.6722775l1.5126244-9.4118854c-.1680694-.1680694-.3361387-.5042081-.6722775-.5042081m-3.8655958 5.3782202c-.3361387 1.5126244-1.5126244 2.6891101-3.1933182 2.6891101-.8403469 0-1.5126245-.3361388-1.8487632-.6722775-.3361388-.5042082-.5042082-1.1764857-.5042082-2.0168326.1680694-1.5126244 1.5126245-2.6891101 3.0252489-2.6891101.8403469 0 1.3445551.3361388 1.8487632.6722775.6722775.5042082.8403469 1.3445551.6722775 2.0168326" fill="#139ad6"/><path d="m72.6059729 12.5631863h-2.8571795c-.3361388 0-.5042082.1680694-.6722775.3361387l-3.6975264 5.714359-1.6806938-5.3782202c-.1680694-.3361388-.3361388-.5042081-.840347-.5042081h-2.6891101c-.3361387 0-.5042081.3361387-.5042081.6722775l3.0252489 8.9076772-2.8571795 4.0336652c-.1680694.3361387 0 .8403469.3361387.8403469h2.6891101c.3361388 0 .5042082-.1680694.6722776-.3361388l9.243816-13.2774811c.5042081-.5042082.1680693-1.0084163-.1680694-1.0084163" fill="#263b80"/><path d="m102.186184 7.68917421-2.3529713 15.12624439c0 .3361387.1680693.5042081.5042083.5042081h2.352971c.336139 0 .672278-.3361388.840347-.6722775l2.352971-14.79010561c0-.33613876-.168069-.50420814-.504208-.50420814h-2.68911c-.168069-.16806938-.336139 0-.504208.33613876" fill="#139ad6"/><path d="m19.3279789 2.14288462c-1.1764857-1.34455506-3.3613876-2.01683258-6.3866365-2.01683258h-8.40346909c-.50420815 0-1.00841629.50420814-1.17648568 1.00841629l-3.36138763 22.01708897c0 .5042082.33613876.8403469.67227753.8403469h5.21015083l1.34455505-8.2353997v.3361388c.16806938-.5042081.67227753-1.0084163 1.17648567-1.0084163h2.52104072c4.8740121 0 8.5715385-2.0168326 9.7480241-7.56312217 0-.16806938 0-.33613876 0-.50420815-.1680693 0-.1680693 0 0 0 .1680694-2.18490196-.1680693-3.52945701-1.344555-4.87401206" fill="#263b80"/><path d="m20.5044646 7.01689668v.50420815c-1.1764857 5.71435897-4.8740121 7.56312217-9.7480242 7.56312217h-2.5210407c-.50420814 0-1.00841629.5042082-1.17648567 1.0084163l-1.68069382 10.2522323c0 .3361387.16806939.6722775.67227753.6722775h4.36980396c.5042081 0 1.0084163-.3361388 1.0084163-.8403469v-.1680694l.8403469-5.2101508v-.3361388c0-.5042081.5042081-.8403469 1.0084163-.8403469h.6722775c4.2017345 0 7.5631222-1.6806938 8.4034691-6.7227753.3361387-2.0168325.1680693-3.86559574-.8403469-5.04208141-.1680694-.33613876-.5042082-.67227752-1.0084163-.84034691" fill="#139ad6"/><path d="m19.3279789 6.51268854c-.1680694 0-.3361388-.16806938-.5042082-.16806938-.1680693 0-.3361387 0-.5042081-.16806938-.6722775-.16806939-1.3445551-.16806939-2.184902-.16806939h-6.55470584c-.16806939 0-.33613877 0-.50420815.16806939-.33613876.16806938-.50420814.50420814-.50420814.8403469l-1.34455506 8.73960782v.3361388c.16806938-.5042081.67227753-1.0084163 1.17648567-1.0084163h2.52104072c4.8740121 0 8.5715385-2.0168326 9.7480241-7.56312217 0-.16806938 0-.33613876.1680694-.50420815-.3361387-.16806938-.5042081-.33613876-.8403469-.33613876-.5042081-.16806938-.5042081-.16806938-.6722775-.16806938" fill="#232c65"/></g></svg>