<svg height="40" viewBox="0 0 73 40" width="73" xmlns="http://www.w3.org/2000/svg"><g fill="none" fill-rule="evenodd" transform="translate(0 3)"><path d="m68.2630601 20.3605552h1.1178714v1.7168287h.5460154l1.0914006-1.7168287h1.2411924l-1.4258586 2.139103v.0176473l1.6019112 2.332803h-1.2939241l-1.179637-1.8222923h-.5810999v1.8222923h-1.1178714zm-2.0596903 1.6901477c-.0088237-.5985371-.3958034-.9506425-.8977006-.9506425-.5722762 0-.9773235.3787864-1.082787.9506425zm-.8712297-1.7956113c1.2851005 0 1.9893112.9418188 1.9893112 2.1300693 0 .1411783-.0176472.29055-.0350844.4317283h-3.0899556c.070379.7832033.6691262 1.1882505 1.346866 1.1882505.4575689 0 .9241715-.2027337 1.2851005-.4932836l.4403418.8014808c-.457779.4046271-1.1619897.6424452-1.804645.6424452-1.4876241 0-2.4208294-1.0741734-2.4208294-2.3502402 0-1.3819505.9420289-2.3504503 2.2888949-2.3504503zm-7.4137505 3.6531981c.5544189-.0792027.9418188-.5458053.9418188-2.139103v-1.4086315h3.2746218v4.4895533h-1.1178714v-3.5826089h-1.0916107v.5016871c0 1.9540166-.5191243 3.0809218-2.0069585 3.12504zm-1.6466597-1.8575868c-.0088237-.5985371-.3962236-.9506425-.8981208-.9506425-.5720662 0-.9769033.3787864-1.0825769.9506425zm-.8716499-1.7956113c1.2853106 0 1.9895213.9418188 1.9895213 2.1300693 0 .1411783-.0176473.29055-.0352945.4317283h-3.0897455c.070379.7832033.6691262 1.1882505 1.346866 1.1882505.4577789 0 .9243816-.2027337 1.2851005-.4932836l.4401317.8014808c-.457779.4046271-1.1617796.6424452-1.804645.6424452-1.4876241 0-2.4206193-1.0741734-2.4206193-2.3502402 0-1.3819505.9418188-2.3504503 2.2886848-2.3504503zm-9.2005381.1054636h1.0653498v3.5387008h1.3995978v-3.5387008h1.0651397v3.5387008h1.3995977v-3.5387008h1.0653498v4.4895533h-5.9950348zm-3.3613876 3.6445845c.7306816 0 1.3380423-.5634526 1.3380423-1.3995978 0-.8277417-.6073607-1.3995978-1.3380423-1.3995978-.7306817 0-1.3292188.5718561-1.3292188 1.3995978 0 .8361452.5985371 1.3995978 1.3292188 1.3995978zm-.0088237-3.7500481c1.373337 0 2.4735611.9771134 2.4735611 2.3504503 0 1.3819505-1.1002241 2.3502402-2.4647374 2.3502402s-2.4647375-.9682897-2.4647375-2.3502402c0-1.3733369 1.1002242-2.3504503 2.4559138-2.3504503zm-7.2990431-1.6548531h1.1357288v2.5437301h.8096743l1.4699768-2.5437301h1.2323687l-1.7691403 2.9754583v.0176473l1.8748139 3.2567644h-1.2851005l-1.5229186-2.7288165h-.8096743v2.7288165h-1.1357288z" fill="#293035"/><path d="m14.5438839 29.0883981c-7.98602671 0-14.45984921-6.4748729-14.45984921-14.4608996 0-7.98581671 6.4738225-14.45984929 14.45984921-14.45984929 7.9858167 0 14.4600594 6.47403258 14.4600594 14.45984929 0 2.7136902-.7470684 5.2530085-2.0472952 7.4225741-.0422274.0707992-.1493716.0462191-.1607163-.0355046-.4960148-3.553617-2.667051-5.5116253-5.8269655-6.0826411-.2741632-.0495804-.3252142-.2184901.0373955-.2497931.9638779-.0834044 2.3374249-.0693286 3.0359632.0567234.0420174-.3645004.060505-.7357237.060505-1.1113587 0-5.27905932-4.2796767-9.55873604-9.5589461-9.55873604-5.27926932 0-9.55873595 4.27967672-9.55873595 9.55873604 0 5.2792693 4.27946663 9.558946 9.55873595 9.558946.1506322 0 .300214.0018908.4489554-.005042-.1594558-.9283733-.2086161-1.8720829-.1796242-2.5849071.0235297-.5832008.1418086-.6632438.4048372-.2094565 1.3229161 2.2796511 3.2210496 4.3561483 6.9110129 5.1691839 3.0168454.6647144 6.0418842 1.451069 9.3125144 5.5805338.29076.3670215-.1529432.734043-.4863508.438451-3.3279838-2.9485673-6.3349552-3.8989996-9.1062092-3.8989996-3.0847034 0-5.186411.4121901-7.3051357.4121901zm7.3400101-6.0801199c-.2905499 0-.53299.1012618-.6821516.2852978-.3817276.4710144-.2100867 1.2998065.3747947 1.8109475.2552554.2229021.6231173.3563071.9840463.3563071.3676517 0 .6741683-.138027.8634564-.3878201.3403405-.4563083.1447498-1.1027452-.4985358-1.6466597-.3184915-.2695413-.6882441-.4180726-1.04161-.4180726zm3.2063436-2.3662068c-.2771044-.1048333-.4970652-.0212188-.6018984.1705904-.1590357.2903398-.0415972.8642968.2789951 1.3645133.3247941.5067292.6002178.7638753.8195484.7638753.201053 0 .4012656-.2623983.3067266-.89623-.0563033-.3785762-.2668102-1.1998053-.8033717-1.402749zm16.8560985-7.5122812-1.1636704-1.3998079c-.1220604-.1466405-.0176473-.3693324.1733216-.3693324h2.4349051c.1159679-.3451725.181515-.7138747.181515-1.0968628 0-1.75359396-1.3052689-3.26558813-3.0968885-3.26558813-1.7914095 0-3.0964682 1.51199417-3.0964682 3.26558813 0 1.7535939 1.3050587 3.2441592 3.0964682 3.2441592.5428641 0 1.0401394-.1386572 1.4708172-.3781561zm5.2664541 2.3657866c.1262621.1399178.0226893.3651307-.1678593.3651307h-2.657387c-.1079846 0-.2105069-.0481098-.2798355-.1313042l-.4502159-.5416035c-.9172387.5947555-2.0094795.9418188-3.1819736.9418188-3.2342851 0-5.8658315-2.6313363-5.8658315-5.8658315 0-3.2344953 2.6315464-5.86604164 5.8658315-5.86604164 3.2347054 0 5.8660416 2.63154634 5.8660416 5.86604164 0 1.1659813-.3434918 2.2525498-.9321548 3.1668473zm24.546113-10.8278699h-2.1687253c-.1590356 0-.2884491.12920334-.2884491.28865917v10.61484193c0 .1592458.1294135.2884491.2884491.2884491h2.1687253c.1590357 0 .2884491-.1292033.2884491-.2884491v-10.61484193c0-.15945583-.1294134-.28865917-.2884491-.28865917zm-3.6492065 0h-2.4260815c-.1271024 0-.2388686.082354-.2760539.20273369l-1.9197725 6.27297961-2.1101111-6.27991247c-.0392863-.11680822-.1493717-.19580083-.273743-.19580083h-1.693089c-.1241612 0-.2344568.07899261-.2735329.19580083l-2.1101111 6.27991247-1.9199826-6.27297961c-.0369752-.12037969-.1489515-.20273369-.2760539-.20273369h-2.4260816c-.0928583 0-.1798342.0443283-.2340366.11890909s-.0689084.17059042-.0394963.2579865l3.5634911 10.62051431c.0392862.1168082.1495817.1955907.2735329.1955907h1.9256549c.1241613 0 .2344568-.0787825.273743-.1953806l2.0895226-6.20491149 2.0893125 6.20491149c.0392863.1165981.1495818.1953806.273743.1953806h1.925655c.1239512 0 .2344568-.0787825.2735329-.1955907l3.5637012-10.62051431c.0294121-.08739608.014706-.18340571-.0394964-.2579865-.0544124-.07458079-.1413883-.11890909-.2342467-.11890909zm-16.8966452.28865917v10.61484193c0 .1592458-.1292033.2884491-.288449.2884491h-2.1687253c-.1590357 0-.2884491-.1292033-.2884491-.2884491v-10.61484193c0-.15945583.1294134-.28865917.2884491-.28865917h2.1687253c.1592457 0 .288449.12920334.288449.28865917z" fill="#e9832c"/></g></svg>