<svg height="40" viewBox="0 0 112 40" width="112" xmlns="http://www.w3.org/2000/svg"><path d="m17.9925146 12.2082677c-2.5188176 0-3.8118405 1.8818888-3.8118405 4.4886364 0 2.7096455 1.1608074 4.490923 3.9799111 4.490923 1.2078671 0 2.2162905-.3429931 2.9714876-.7934574v-1.2965139c-.9232676.5602221-1.7636205.8894954-2.6689606.8894954-1.7277655 0-2.5524317-.9055017-2.5524317-2.965747h5.4723777v-.6288206c.0022409-2.7988237-1.290782-4.1845159-3.3905436-4.1845159zm-2.04822 3.6631663c.1837571-1.7103922.9748093-2.5175693 1.9989193-2.5175693.9075811 0 1.7636205.7157123 1.8465353 2.5175693zm10.9828514-3.6631663c-.9075811 0-1.7636205.3589995-2.2700731.633394v-4.88422178l-1.745693.42759806v11.96131272c1.0084234.5465023 2.3843611.8391898 3.2762556.8391898 2.4359028 0 3.946297-1.5617619 3.946297-4.7676041 0-2.737085-1.1249524-4.2096687-3.2067865-4.2096687zm-.7395105 7.7767969c-.4212969 0-1.0061825-.0320127-1.5440083-.2721078v-5.6045073c.6722823-.3772924 1.1608074-.5647953 1.8286078-.5647953 1.1249523 0 1.9003179.7042792 1.9003179 2.8765688 0 2.7782441-.9411952 3.5648416-2.1849174 3.5648416zm35.5032269-5.2066352v6.2013152h-1.745693v-5.8103031c0-1.3536794-.6521138-1.5937746-1.514876-1.5937746-.6700414 0-1.5283217.3086938-2.04822.6173876v6.7844035h-1.7434521v-7.504689c.7551971-.4618974 2.3507471-1.2667879 4.2824381-1.2667879 2.012365.0022866 2.769803.8071771 2.769803 2.5724483zm-20.2356965-5.94750039h2.0818342v12.14881559h-1.8129212v-8.8103494h-.1501431l-3.4263986 8.8103494h-1.0734107l-3.4263987-8.6022669h-.150143v8.6022669h-1.5103942v-12.14881559h2.0302925l3.7625397 9.57636739h.0851558zm7.7581375 3.37733869c-2.2162906 0-3.829768 1.4908767-3.829768 4.4886364 0 2.9291611 1.5305626 4.490923 3.829768 4.490923 2.3014463 0 3.829768-1.5617619 3.829768-4.490923 0-3.0000463-1.6134775-4.4886364-3.829768-4.4886364zm0 7.7767969c-1.1921806 0-2.0661475-.9375144-2.0661475-3.2881605 0-2.3140601.9591227-3.2904471 2.0661475-3.2904471 1.1428799 0 2.0661475.976387 2.0661475 3.2904471 0 2.3506461-.8739669 3.2881605-2.0661475 3.2881605zm53.9820256 3.3270331 2.960283 3.4527972c-.587127.464184-1.230277.9055018-1.936173 1.3125203-2.140099 1.2462082-4.6208201 1.9573473-7.2539257 1.9573473-8.1054833 0-14.7184999-6.745531-14.7184999-15.016238 0-8.27299353 6.6130166-15.0185245 14.7184999-15.0185245 2.3081691 0 4.4998097.54878896 6.4516687 1.52288936.307009.14863035.609536.31326704.912063.49162345l-1.353528 1.23706178-2.030293-2.14713681-3.4353621 3.12809707-2.0347743-2.27290094-6.4068501 5.8857616 4.1054038 4.61668709-1.6157184 1.4451443 4.0448983 4.6212604-1.6067546 1.4428576 5.7771457 6.5603147zm7.027591-9.3202658 1.57314 1.7858507-1.747934 1.6074943-1.575381-1.7858507zm-33.2353949-1.49545h1.7994755l-3.0364749 8.5702543c-.8403529 2.3666524-1.8644629 3.5991409-3.793913 3.5991409v-1.4016984c1.1428799 0 1.8465353-.9237948 2.2499047-2.1928693l-3.222473-8.5725408h1.8465353l2.1490623 6.3087864h.1008423zm-9.9228864-.2881142c-2.5210585 0-3.8118405 1.8818888-3.8118405 4.4886364 0 2.7096455 1.1585665 4.490923 3.9776701 4.490923 1.2078672 0 2.2118087-.3429931 2.9692467-.7934574v-1.2965139c-.9210267.5602221-1.7613795.8894954-2.6667197.8894954-1.7277654 0-2.5546726-.9055017-2.5546726-2.965747h5.4746187v-.6288206c.0044818-2.7988237-1.290782-4.1845159-3.3883027-4.1845159zm-2.0527019 3.6631663c.1882391-1.7103922.9792912-2.5175693 2.0034012-2.5175693.9030992 0 1.7636205.7157123 1.8465353 2.5175693zm42.7885262 4.4131779 2.364192 2.6799195-2.626382 2.4123848-2.366434-2.6799195zm-6.971568-16.4568089 2.364193 2.67991942-2.626383 2.4123848-2.3641923-2.67991942zm-5.5508102.92608137 3.1507629 3.57170148-3.5003497 3.21498865-3.1507629-3.57170148zm7.7088372 9.55121453-2.364193-2.6776328 2.621901-2.41238481 2.368674 2.67763281zm3.247123-4.008446 1.745693-1.60749437 1.57314 1.78585077-1.743452 1.6074943zm-94.5072012-1.46572389h1.9653052l-2.7227432 12.14881559h-1.81516217l-2.28351879-8.5519613h-.11876987l-2.21629056 8.5519613h-1.81516214l-2.72050227-12.14881559h1.88239037l1.88014942 9.06416429h.11876987l2.18267645-9.06416429h1.49470759l2.33506043 9.06416429h.11876987zm93.5055002 11.13126939-2.368674-2.6753462 2.626383-2.4146714 2.368674 2.6753462zm-1.234758-14.97279211 1.750175-1.60749432 1.57314 1.78585074-1.747934 1.60749433zm-6.5614751 12.64958551-3.1507629-3.5717015 3.5003497-3.2195619 3.1507633 3.5717015zm2.4896853 6.1738758-3.1485219-3.5717015 3.4981087-3.2149886 3.150763 3.5717015z" fill="#036cb5" transform="translate(0 4)"/></svg>