<?xml version="1.0" encoding="UTF-8"?>
<svg width="139px" height="29px" viewBox="0 0 139 29" version="1.1" xmlns="http://www.w3.org/2000/svg" xmlns:xlink="http://www.w3.org/1999/xlink">
    <!-- Generator: Sketch 56.3 (81716) - https://sketch.com -->
    <title>youmoney</title>
    <desc>Created with Sketch.</desc>
    <g id="Page-1" stroke="none" stroke-width="1" fill="none" fill-rule="evenodd">
        <g id="Artboard" transform="translate(-19.000000, -84.000000)">
            <g id="youmoney" transform="translate(18.000000, 79.000000)">
                <rect id="Rectangle" x="0" y="0" width="142" height="40"></rect>
                <path d="M27.4995282,5 C35.483398,5 42.0907793,11.5158274 41.9990564,19.5 C41.9990564,27.4841296 35.483398,34 27.4995282,34 C19.515551,34 13,27.575963 13,19.5 C13,11.5158274 19.423828,5 27.4995282,5 Z M27.4995282,24.9145148 C30.5278889,24.9145148 32.9138668,22.4367333 32.9138668,19.5 C32.9138668,16.5632667 30.4360586,14.0854422 27.4995282,14.0854422 C24.5628904,14.0854422 22.0850822,16.5632667 22.0850822,19.5 C22.0850822,22.4367333 24.5628904,24.9145148 27.4995282,24.9145148 Z" id="Shape" fill="#8B3FFD"></path>
                <polygon id="Path" fill="#8B3FFD" points="13 9 13 30 7.69764657 30 1 9"></polygon>
                <path d="M136.018639,13 L132.777417,21.0492114 C132.685306,21.1428697 132.685306,21.3300767 132.685306,21.4236254 L132.592111,21.6108324 L132.5,21.4236254 C132.5,21.3300767 132.406805,21.1428697 132.406805,21.0492114 L129.166667,13 L125,13 L130.462722,26.7585323 L128.148028,32 L132.314694,32 L140,13 L136.018639,13 Z" id="Path" fill="#000000"></path>
                <path d="M105.181783,14.0628617 C104.45456,13.5003769 103.545399,13.1253907 102.454511,13.0316469 C100.636401,12.8441484 98.909047,13.5003879 97.7272965,14.7190902 L97.7272965,13.2191455 L94,13.2191455 L94,27 L97.7272965,27 L97.7272965,19.7814859 C97.7272965,18.1877096 98,17.7189906 98.2726871,17.3439715 C98.7273211,16.5940431 99.5454069,16.219024 100.545431,16.219024 C101.545456,16.219024 102.454511,16.687743 102.909039,17.4377812 C103.181841,18.0002001 103.272703,18.7502383 103.272703,19.1252574 C103.272703,20.3439048 103.272703,27 103.272703,27 L107,27 L107,18.6564286 C107,16.5002334 106.36364,15.0003326 105.181783,14.0628617 Z" id="Path" fill="#000000"></path>
                <path d="M86.452213,13.4187186 C84.6344429,12.7806725 82.6349916,12.8718189 80.8172215,13.6921684 C79.6357613,14.2390681 78.5451418,15.150564 77.9089382,16.3355311 C77.2727347,17.3380987 77,18.6142975 77,19.9814933 C77,21.3486892 77.2727347,22.6247813 77.9089382,23.6274556 C78.5451418,24.6301299 79.3630267,25.5415938 80.4537525,26.0885361 C81.5443721,26.6353718 82.8167792,27 83.9982394,27 C84.6344429,27 85.2706465,26.9088963 85.9069565,26.7265822 C86.452213,26.5442681 86.997576,26.3619539 87.5428325,26.0885361 C88.633452,25.45049 89.5423903,24.6301299 90.0876468,23.6274556 C90.7238504,22.6247813 90.9965851,21.3486892 90.9965851,19.9814933 C91.0874257,16.9735771 89.3606026,14.4213609 86.452213,13.4187186 Z M87.5428325,20.1638074 C87.4519919,21.3486892 87.0884166,22.3513635 86.3613724,22.9894095 C85.8160094,23.4451415 84.9980182,23.718666 83.9982394,23.8097697 C82.9985669,23.8097697 82.2714163,23.5363519 81.6352127,22.9894095 C80.9081685,22.3513635 80.5445932,21.3486892 80.4537525,20.1638074 C80.3628055,18.7965049 80.9081685,17.7027269 81.9079473,16.9735771 C82.4532039,16.6089489 83.1803545,16.3355311 83.9073987,16.3355311 C84.7253899,16.3355311 85.3615935,16.6089489 85.9977971,16.9735771 C87.0884166,17.6116232 87.6337795,18.7965049 87.5428325,20.1638074 Z" id="Shape" fill="#000000"></path>
                <path d="M72.9491978,14.0198677 C72.2033723,13.4635723 71.2711994,13.0927123 70.1525701,13 C69.9661137,13 69.6864837,13 69.5000273,13 C68.0084852,13 66.7033995,13.6490077 65.5847703,14.9470231 L65.3983139,15.2251708 L65.0254011,15.2251708 C64.745771,14.7615877 64.3728582,14.3907385 63.9999454,14.1125908 C63.254229,13.5562954 62.3220561,13.1854246 61.2033177,13.0927123 C59.4321456,12.9072769 58.0338863,13.4635723 56.8219743,14.7615877 L56.8219743,13.37086 L53,13.37086 L53,27 L56.8219743,27 L56.8219743,19.8609153 L56.8219743,19.675469 C56.8219743,18.1921159 57.0084307,17.8212233 57.2880607,17.3576619 C57.7542562,16.6158768 58.5931464,16.1523154 59.5254284,16.2450928 C60.4576012,16.2450928 61.2966005,16.7086542 61.7626869,17.4503308 C62.1355997,18.0066696 62.1355997,18.6556773 62.1355997,19.304685 L62.1355997,26.9073311 L65.957574,26.9073311 L65.957574,19.5828001 C65.957574,18.1921159 66.1440304,17.7284459 66.4237695,17.2648845 C66.8898559,16.5232079 67.7288552,16.1523154 68.661028,16.1523154 C69.5932009,16.1523154 70.3390265,16.6158768 70.8051129,17.3576619 C71.084743,17.8212233 71.1779166,18.3774536 71.1779166,18.7483462 C71.1779166,18.9337924 71.1779166,19.1192387 71.1779166,19.2119076 L71.1779166,26.8146622 L75,26.8146622 L75,18.470231 C75,17.7284459 74.9068264,16.9867693 74.72037,16.3377616 C74.3474572,15.4105954 73.7881971,14.5761631 72.9491978,14.0198677 Z" id="Path" fill="#000000"></path>
                <path d="M121.273346,22.5451912 C120.72759,23.0902929 119.455223,24.0897877 117.72859,24.1806026 C116.274304,24.2715237 115.182791,23.8172369 114.364689,22.999478 C114.001915,22.636006 113.728505,22.090798 113.546586,21.5456963 L123.818081,21.5456963 L123.818081,21.4547751 C123.909573,20.9096735 124,20.4553866 124,19.9101786 C124,19.4558917 123.909573,18.8198689 123.727654,18.00211 C123.273389,16.4575135 122.363795,15.2763039 121.182919,14.3676876 C119.81906,13.3682247 118.546693,13.0956419 118.182855,13.0956419 C115.546629,12.6413444 112.546565,13.8225221 111.001851,16.2757775 C109.911403,18.00211 110.00183,19.7284426 110.00183,20.2736506 C110.00183,20.9096735 110.092258,22.9085569 111.728463,24.7258106 C113.638078,26.8156152 116.274304,26.90643 117.092406,26.9973512 C120.72759,27.088166 123.181898,24.8166254 123.727654,24.3623386 L121.273346,22.5451912 Z M114.910445,16.9118003 C115.456201,16.5483283 116.092385,16.2757775 116.910488,16.2757775 C117.72859,16.2757775 118.364774,16.5483283 119.000958,16.9118003 C119.546714,17.3660872 120.000979,17.9112952 120.273325,18.547318 L113.728505,18.547318 C113.819996,17.9112952 114.274261,17.2752723 114.910445,16.9118003 Z" id="Shape" fill="#000000"></path>
            </g>
        </g>
    </g>
</svg>