<?xml version="1.0" encoding="utf-8"?>
<!-- Generator: Adobe Illustrator 23.0.1, SVG Export Plug-In . SVG Version: 6.00 Build 0)  -->
<svg version="1.1" id="Слой_1" xmlns="http://www.w3.org/2000/svg" xmlns:xlink="http://www.w3.org/1999/xlink" x="0px" y="0px"
	 viewBox="0 0 1366 768" style="enable-background:new 0 0 1366 768;" xml:space="preserve">
<style type="text/css">
	.st0{fill:#00B261;}
	.st1{opacity:0.16;}
	.st2{fill:#FFFFFF;}
	.st3{fill:#121212;}
	.st4{display:none;}
	.st5{display:inline;fill:#00B261;}
	.st6{display:inline;fill:#009551;}
	.st7{display:inline;fill:#121212;}
	.st8{display:inline;}
</style>
<g>
	<g>
		<path class="st0" d="M938.73,343.51c-1.85,4.19-4.26,8.16-7.17,11.82l-1.35,1.69l-70.35,88.22l-7.73,9.7l-6.33,7.97l-17.89,22.42
			c-5.01,6.28-11.27,11.32-18.25,14.74c-7.44,3.76-15.67,5.73-24.17,5.73H619.23c-16.54,0-32.14-7.54-42.45-20.47L473.13,355.33
			c-10.28-12.88-14.16-29.78-10.5-45.89l36.98-162.11c3.71-16.11,14.52-29.66,29.4-36.81L678.8,38.38c14.88-7.17,32.24-7.17,47.09,0
			l149.81,72.13c14.86,7.15,25.67,20.71,29.37,36.81l21.43,93.95l15.55,68.16C944.68,320.97,943.45,332.91,938.73,343.51z"/>
		<path class="st1" d="M938.73,343.51c-1.85,4.19-4.26,8.16-7.17,11.82l-1.35,1.69l-70.35,88.22l-7.73,9.7l-6.33,7.97l-17.89,22.42
			c-5.01,6.28-11.27,11.32-18.25,14.74c-7.44,3.76-15.67,5.73-24.17,5.73H705.5L531.62,331.9l56.08-56.08
			c1.18-0.63,2.41-1.25,3.64-1.85c6.36-3.11,13.19-5.71,20.54-7.54c33.39-8.35,59.4,8.69,73.82,22.08l0.41,0.39l5.25,5.25l30,30
			c0.22-3.54,0.84-6.81,1.73-9.8c0.02-0.05,0.02-0.1,0.05-0.12l1.9-2.02l0.87-0.94l-37.42-37.42l13.94-166.66L938.73,343.51z"/>
		<g>
			<g>
				<g>
					<g>
						<path class="st2" d="M741.43,264.43c0,0-0.02,0.02-0.05,0.05c-4.04,4-7.44,6.77-9.22,8.14c-0.02,0-0.02,0.02-0.02,0.02
							c-0.07,0.05-0.12,0.1-0.19,0.14c-0.02,0.02-0.02,0.02-0.02,0.02c-0.26,0.19-0.55,0.36-0.84,0.55
							c10.16-15.19,33.47-56.51,20.92-101.24c-5.8-20.8-19.38-42.35-45.65-62.36c-0.02-0.02-0.02-0.02-0.02-0.02
							c-0.19-0.14-0.41-0.29-0.63-0.46c-0.02,0-0.07-0.02-0.1-0.07c-0.02-0.02-0.02,0-0.02,0v-0.02c0,0-0.02,0-0.05-0.02
							c0,0,0,0,0-0.02c0.05,0.02,0.07,0.05,0.12,0.1h0.02c9.7,5.95,38.09,25.45,53.62,57.42c3.11,6.36,5.68,13.19,7.51,20.54
							C775.86,223.4,755.06,250.92,741.43,264.43z"/>
						<path class="st2" d="M724.43,272.32c-0.05,0.07-0.12,0.22-0.26,0.39c-0.6,0.94-2.05,3.15-4.19,5.59
							c-0.29,0.31-0.63,0.53-1.01,0.65c-0.05,0.02-0.1,0.02-0.14,0.05c-0.77,0.24-1.57,0.43-2.36,0.63c-0.02-0.02-0.02,0-0.05,0
							c-5.37,1.28-11.53,1.66-18.37,0.41c-0.19-0.05-0.46-0.12-0.75-0.22c-2.22-0.67-4.19-1.83-5.9-3.32
							c-7.2-6.26-13.29-12.52-18.39-18.73c-2.24-2.75-4.31-5.49-6.16-8.21l-0.07-0.12c-2.07-3.01-3.92-6.02-5.56-9
							c-11.99-22.03-12.64-43.17-7.83-61.88c0,0,0,0,0.02-0.02c10.62-40.93,47.53-70.18,48.88-71.24c0,0,0.02,0,0.02-0.02
							c0.02,0,0.02,0,0.02,0s1.11,0.6,3.13,1.83c0.02,0,0.02,0.05,0.07,0.05c0,0.02,0,0.02,0,0.02c0.02,0.02,0.05,0.02,0.05,0.02
							v0.02c0.87,0.82,6.38,6.21,13.12,15.31c8.96,12.11,20.06,30.75,25.06,53.81C749.54,204.88,747.3,237.29,724.43,272.32z"/>
					</g>
				</g>
			</g>
		</g>
		<g>
			<g>
				<g>
					<g>
						<path class="st2" d="M698.01,302.17c-15.17-10.16-56.48-33.47-101.22-20.92c-8.64,2.43-17.43,6.19-26.17,11.65
							c-12.28,7.66-24.51,18.68-36.19,34.02c-0.02,0.02-0.02,0.02-0.02,0.02c-0.17,0.24-0.36,0.46-0.53,0.72
							c-0.02,0.02-0.02,0.02-0.07,0.07c0.02-0.07,0.05-0.12,0.1-0.17c5.71-9.32,23.96-35.9,53.79-51.74
							c1.18-0.63,2.41-1.25,3.64-1.85c6.36-3.11,13.19-5.71,20.54-7.54c33.39-8.35,59.4,8.69,73.82,22.08l0.41,0.39
							c1.06,0.99,2.07,1.97,3.01,2.91c0,0,0.02,0.02,0.05,0.05c0.77,0.79,1.52,1.56,2.19,2.29c2.99,3.18,5.06,5.78,6.12,7.17
							c0.02,0.02,0.02,0.02,0.02,0.02C697.67,301.61,697.84,301.88,698.01,302.17z"/>
						<path class="st2" d="M696.99,308.82c0.08,0.05,0.23,0.13,0.4,0.28c0.93,0.59,3.15,2.05,5.59,4.19
							c0.32,0.28,0.56,0.65,0.68,1.06c1.75,5.92,2.5,12.94,1.06,20.87c-0.05,0.2-0.13,0.47-0.23,0.76
							c-0.68,2.19-1.83,4.17-3.33,5.89c-6.26,7.21-12.52,13.3-18.73,18.39c-2.75,2.26-5.48,4.31-8.21,6.18l-0.11,0.08
							c-3.02,2.07-6.02,3.91-9.02,5.55c-22.02,12-43.16,12.65-61.86,7.83c0,0,0,0-0.03-0.03c-40.95-10.61-70.2-47.52-71.26-48.86
							c0,0,0-0.03-0.03-0.03c0-0.03,0-0.03,0-0.03s0.62-1.12,1.84-3.14c0.02-0.02,0.1-0.1,0.13-0.13c0.81-0.86,6.2-6.36,15.31-13.11
							c12.1-8.96,30.74-20.05,53.81-25.07C629.56,283.7,661.96,285.96,696.99,308.82z"/>
					</g>
				</g>
			</g>
		</g>
		<g>
			<g>
				<g>
					<g>
						<path class="st2" d="M892.96,327.79l-0.12-0.12c-0.17-0.26-0.36-0.48-0.53-0.72c0,0,0,0-0.02-0.02
							c-20.01-26.27-41.56-39.85-62.36-45.67c-35.1-9.85-68.09,2.38-88,13.03c-5.47,2.91-9.94,5.71-13.22,7.9
							c0.17-0.29,0.34-0.55,0.53-0.82c0,0,0,0,0.02-0.02c1.3-1.71,4.14-5.25,8.31-9.46c0.02-0.02,0.05-0.05,0.05-0.05
							c6.04-6.09,14.88-13.6,26.03-19.26c13.82-7.01,31.18-11.12,51.21-6.12c7.34,1.83,14.18,4.43,20.54,7.54
							c10.98,5.35,20.51,12.21,28.51,19.29l0.1,0.07c2.86,2.58,5.54,5.15,8.02,7.71l0.29,0.29c10.5,10.86,17.38,21.14,20.51,26.24
							C892.87,327.64,892.91,327.69,892.96,327.79z"/>
						<path class="st2" d="M894.82,330.94c0,0,0,0,0,0.02c-0.02,0-0.02,0.02-0.02,0.02c-1.06,1.35-30.31,38.23-71.27,48.85
							c-0.02,0.02-0.02,0.02-0.02,0.02c-18.71,4.84-39.85,4.17-61.85-7.82c-3.01-1.64-6.02-3.47-9.03-5.54l-0.12-0.07
							c-2.72-1.88-5.47-3.92-8.21-6.19c-2.91-2.38-5.83-4.98-8.74-7.82l-0.6-0.58l-2.99-3.01c-2.12-2.19-4.26-4.53-6.4-6.98
							c-1.49-1.71-2.65-3.68-3.32-5.88c-0.1-0.29-0.17-0.55-0.22-0.75c-1.44-7.95-0.7-14.95,1.06-20.88
							c0.02-0.05,0.02-0.1,0.05-0.12c0.12-0.36,0.34-0.7,0.63-0.94c0.43-0.39,0.87-0.75,1.28-1.08c1.9-1.57,3.54-2.62,4.31-3.11
							c0.17-0.14,0.34-0.24,0.41-0.29c35.01-22.85,67.42-25.11,93.97-19.33c23.07,5.03,41.7,16.11,53.81,25.09
							c9.1,6.74,14.49,12.23,15.31,13.1l0.12,0.12C894.19,329.81,894.82,330.94,894.82,330.94z"/>
					</g>
				</g>
			</g>
		</g>
	</g>
	<g>
		<path class="st3" d="M397.71,598.93v-82.15h29.87v215.44h-29.87v-16.09c-13.79,13.21-30.45,19.82-49.69,19.82
			c-20.97,0-38.49-7.47-52.57-22.41c-14.08-14.94-20.97-33.61-20.97-56.01c0-22.41,6.89-41.08,20.97-56.01
			c14.08-14.94,31.6-22.4,52.57-22.4C367.26,579.11,383.92,585.72,397.71,598.93z M318.71,623.06
			c-8.91,9.19-13.21,20.68-13.21,34.47c0,13.79,4.31,25.28,13.21,34.76c8.9,9.19,19.53,13.79,32.46,13.79
			c12.92,0,23.84-4.6,32.75-13.79c8.91-9.48,13.21-20.97,13.21-34.76c0-13.79-4.31-25.28-13.21-34.47
			c-8.9-9.48-19.82-14.08-32.75-14.08C338.24,608.99,327.62,613.58,318.71,623.06z"/>
		<path class="st3" d="M579.83,598.93v-16.09h29.87v149.37h-29.87v-16.09c-13.79,13.21-30.45,19.82-49.69,19.82
			c-20.97,0-38.49-7.47-52.57-22.41c-14.08-14.94-20.97-33.61-20.97-56.01c0-22.41,6.89-41.08,20.97-56.01
			c14.08-14.94,31.6-22.4,52.57-22.4C549.38,579.11,566.04,585.72,579.83,598.93z M500.83,623.06
			c-8.91,9.19-13.21,20.68-13.21,34.47c0,13.79,4.31,25.28,13.21,34.76c8.9,9.19,19.53,13.79,32.46,13.79
			c12.92,0,23.84-4.6,32.75-13.79c8.91-9.48,13.21-20.97,13.21-34.76c0-13.79-4.31-25.28-13.21-34.47
			c-8.9-9.48-19.82-14.08-32.75-14.08C520.37,608.99,509.74,613.58,500.83,623.06z"/>
		<path class="st3" d="M645.33,582.85h29.87v21.83c10.92-16.95,27.29-25.56,49.12-25.56c16.95,0,31.31,5.46,42.51,16.66
			c11.2,11.2,16.95,24.99,16.95,41.94v94.51h-29.87v-85.89c0-22.12-16.37-38.78-38.49-38.78c-11.2,0-20.97,3.73-28.73,11.2
			c-7.76,7.47-11.49,16.66-11.49,27.86v85.6h-29.87V582.85z"/>
		<path class="st3" d="M935.74,598.93v-16.09h29.87v149.37h-29.87v-16.09c-13.79,13.21-30.45,19.82-49.69,19.82
			c-20.97,0-38.49-7.47-52.57-22.41c-14.08-14.94-20.97-33.61-20.97-56.01c0-22.41,6.89-41.08,20.97-56.01
			c14.08-14.94,31.6-22.4,52.57-22.4C905.29,579.11,921.96,585.72,935.74,598.93z M856.75,623.06
			c-8.91,9.19-13.21,20.68-13.21,34.47c0,13.79,4.31,25.28,13.21,34.76c8.9,9.19,19.53,13.79,32.46,13.79
			c12.92,0,23.84-4.6,32.75-13.79c8.91-9.48,13.21-20.97,13.21-34.76c0-13.79-4.31-25.28-13.21-34.47
			c-8.9-9.48-19.82-14.08-32.75-14.08C876.28,608.99,865.65,613.58,856.75,623.06z"/>
		<path class="st3" d="M1001.24,516.78h29.87v135.01l56.3-68.94h36.48l-58.6,72.1l64.92,77.27h-36.77l-62.33-74.11v74.11h-29.87
			V516.78z"/>
	</g>
</g>
<g class="st4">
	<circle class="st5" cx="55.09" cy="54.09" r="25.09"/>
	<circle class="st6" cx="55.09" cy="124.29" r="25.09"/>
	<circle class="st7" cx="55.09" cy="194.48" r="25.09"/>
	<g class="st8">
		<path d="M102.53,66.85l-0.65,5.26h3.77v1.98h-4.01l-0.6,4.88h-1.92l0.6-4.88h-5.12L94,78.97h-1.92l0.6-4.88h-3.74v-1.98h3.98
			l0.68-5.26H89.8v-1.98h4.04l0.6-4.88h1.92l-0.6,4.88h5.1l0.6-4.88h1.92l-0.6,4.88h3.74v1.98H102.53z M100.61,66.85h-5.1
			l-0.68,5.26h5.12L100.61,66.85z"/>
		<path d="M112.3,78.03c-1.17-0.77-2.08-1.88-2.75-3.35c-0.67-1.46-1-3.2-1-5.2c0-2.01,0.33-3.74,1-5.2
			c0.67-1.46,1.59-2.58,2.75-3.35c1.17-0.77,2.5-1.15,4-1.15c1.48,0,2.81,0.38,3.97,1.15c1.17,0.77,2.08,1.88,2.75,3.35
			c0.67,1.46,1,3.2,1,5.2c0,2.01-0.33,3.74-1,5.2c-0.67,1.46-1.59,2.58-2.75,3.35c-1.17,0.77-2.49,1.15-3.97,1.15
			C114.8,79.18,113.47,78.8,112.3,78.03z M119.95,74.9c0.91-1.25,1.37-3.05,1.37-5.42c0-2.37-0.46-4.17-1.37-5.42
			c-0.91-1.25-2.13-1.87-3.65-1.87c-1.54,0-2.76,0.62-3.67,1.87c-0.91,1.25-1.37,3.05-1.37,5.42c0,2.37,0.46,4.17,1.37,5.42
			c0.91,1.25,2.14,1.87,3.67,1.87C117.82,76.77,119.03,76.15,119.95,74.9z"/>
		<path d="M130.38,78.03c-1.17-0.77-2.08-1.88-2.75-3.35c-0.67-1.46-1-3.2-1-5.2c0-2.01,0.33-3.74,1-5.2
			c0.67-1.46,1.59-2.58,2.75-3.35c1.17-0.77,2.5-1.15,4-1.15c1.48,0,2.81,0.38,3.97,1.15c1.17,0.77,2.08,1.88,2.75,3.35
			c0.67,1.46,1,3.2,1,5.2c0,2.01-0.33,3.74-1,5.2c-0.67,1.46-1.59,2.58-2.75,3.35c-1.17,0.77-2.49,1.15-3.97,1.15
			C132.88,79.18,131.55,78.8,130.38,78.03z M138.03,74.9c0.91-1.25,1.37-3.05,1.37-5.42c0-2.37-0.46-4.17-1.37-5.42
			c-0.91-1.25-2.13-1.87-3.65-1.87c-1.54,0-2.76,0.62-3.67,1.87c-0.91,1.25-1.37,3.05-1.37,5.42c0,2.37,0.46,4.17,1.37,5.42
			c0.91,1.25,2.14,1.87,3.67,1.87C135.9,76.77,137.11,76.15,138.03,74.9z"/>
		<path d="M157.23,65.39c1.1,0.61,1.96,1.47,2.59,2.57c0.62,1.1,0.94,2.38,0.94,3.82c0,1.45-0.31,2.72-0.94,3.84
			c-0.62,1.11-1.49,1.97-2.59,2.59c-1.1,0.61-2.35,0.92-3.74,0.92c-1.07,0-2.04-0.21-2.93-0.62c-0.89-0.42-1.62-1.02-2.2-1.82v2.28
			h-2.49V58.85h2.6v7.91c0.58-0.76,1.3-1.33,2.17-1.72c0.87-0.39,1.82-0.58,2.85-0.58C154.88,64.47,156.13,64.77,157.23,65.39z
			 M155.75,76.21c0.73-0.42,1.31-1.02,1.73-1.79c0.42-0.77,0.64-1.65,0.64-2.64c0-0.99-0.21-1.87-0.64-2.64
			c-0.42-0.77-1-1.36-1.73-1.78c-0.73-0.42-1.56-0.62-2.48-0.62c-0.9,0-1.73,0.21-2.47,0.62c-0.74,0.42-1.32,1.01-1.73,1.78
			c-0.42,0.77-0.62,1.65-0.62,2.64c0,0.99,0.21,1.87,0.62,2.64c0.42,0.77,0.99,1.36,1.73,1.79c0.74,0.42,1.56,0.64,2.47,0.64
			C154.19,76.85,155.02,76.64,155.75,76.21z"/>
		<path d="M176.25,76.61v2.36h-13.63v-1.84l7.72-7.45c0.94-0.9,1.57-1.68,1.9-2.34c0.33-0.66,0.49-1.32,0.49-1.99
			c0-0.99-0.35-1.77-1.04-2.32c-0.7-0.55-1.69-0.83-2.99-0.83c-2.1,0-3.71,0.69-4.85,2.06l-1.84-1.6c0.74-0.9,1.71-1.61,2.91-2.11
			c1.2-0.51,2.54-0.76,4.02-0.76c1.99,0,3.57,0.47,4.74,1.42c1.17,0.95,1.76,2.24,1.76,3.86c0,1.01-0.22,1.97-0.65,2.87
			c-0.43,0.9-1.26,1.93-2.47,3.09l-5.8,5.58H176.25z"/>
		<path d="M189.93,68.15c0.98,0.47,1.76,1.14,2.32,2.02c0.56,0.88,0.84,1.88,0.84,3.02c0,1.19-0.29,2.24-0.88,3.14
			c-0.59,0.9-1.39,1.6-2.41,2.1c-1.02,0.5-2.16,0.75-3.43,0.75c-2.55,0-4.51-0.82-5.9-2.47c-1.38-1.64-2.07-3.98-2.07-6.99
			c0-2.11,0.37-3.92,1.12-5.41c0.75-1.49,1.8-2.62,3.14-3.39c1.35-0.77,2.91-1.15,4.7-1.15c0.92,0,1.79,0.09,2.6,0.28
			c0.81,0.19,1.52,0.47,2.11,0.83L191.05,63c-0.9-0.6-2.11-0.89-3.63-0.89c-1.97,0-3.51,0.61-4.63,1.83
			c-1.12,1.22-1.68,2.99-1.68,5.33c0,0.29,0.01,0.52,0.03,0.68c0.54-0.81,1.29-1.43,2.24-1.86c0.95-0.42,2.02-0.64,3.21-0.64
			C187.83,67.45,188.94,67.68,189.93,68.15z M189.29,75.98c0.78-0.67,1.17-1.56,1.17-2.68c0-1.12-0.39-2.01-1.18-2.67
			c-0.79-0.66-1.84-0.99-3.16-0.99c-0.85,0-1.6,0.16-2.26,0.49c-0.66,0.33-1.17,0.77-1.54,1.33c-0.37,0.56-0.56,1.18-0.56,1.87
			c0,0.67,0.18,1.28,0.53,1.83c0.35,0.55,0.87,0.99,1.54,1.33c0.68,0.33,1.49,0.5,2.43,0.5C187.5,76.99,188.51,76.65,189.29,75.98z"
			/>
		<path d="M201,59.99v18.97h-2.68V62.35h-4.28v-2.36H201z"/>
	</g>
	<g class="st8">
		<path d="M102.53,137.05l-0.65,5.26h3.77v1.98h-4.01l-0.6,4.88h-1.92l0.6-4.88h-5.12l-0.6,4.88h-1.92l0.6-4.88h-3.74v-1.98h3.98
			l0.68-5.26H89.8v-1.98h4.04l0.6-4.88h1.92l-0.6,4.88h5.1l0.6-4.88h1.92l-0.6,4.88h3.74v1.98H102.53z M100.61,137.05h-5.1
			l-0.68,5.26h5.12L100.61,137.05z"/>
		<path d="M112.3,148.23c-1.17-0.77-2.08-1.88-2.75-3.35c-0.67-1.46-1-3.2-1-5.2c0-2.01,0.33-3.74,1-5.2
			c0.67-1.46,1.59-2.58,2.75-3.35c1.17-0.77,2.5-1.15,4-1.15c1.48,0,2.81,0.38,3.97,1.15c1.17,0.77,2.08,1.88,2.75,3.35
			c0.67,1.46,1,3.2,1,5.2c0,2.01-0.33,3.74-1,5.2c-0.67,1.46-1.59,2.58-2.75,3.35c-1.17,0.77-2.49,1.15-3.97,1.15
			C114.8,149.38,113.47,148.99,112.3,148.23z M119.95,145.1c0.91-1.25,1.37-3.05,1.37-5.42c0-2.37-0.46-4.17-1.37-5.42
			c-0.91-1.25-2.13-1.87-3.65-1.87c-1.54,0-2.76,0.62-3.67,1.87c-0.91,1.25-1.37,3.05-1.37,5.42c0,2.37,0.46,4.17,1.37,5.42
			c0.91,1.25,2.14,1.87,3.67,1.87C117.82,146.97,119.03,146.34,119.95,145.1z"/>
		<path d="M130.38,148.23c-1.17-0.77-2.08-1.88-2.75-3.35c-0.67-1.46-1-3.2-1-5.2c0-2.01,0.33-3.74,1-5.2
			c0.67-1.46,1.59-2.58,2.75-3.35c1.17-0.77,2.5-1.15,4-1.15c1.48,0,2.81,0.38,3.97,1.15c1.17,0.77,2.08,1.88,2.75,3.35
			c0.67,1.46,1,3.2,1,5.2c0,2.01-0.33,3.74-1,5.2c-0.67,1.46-1.59,2.58-2.75,3.35c-1.17,0.77-2.49,1.15-3.97,1.15
			C132.88,149.38,131.55,148.99,130.38,148.23z M138.03,145.1c0.91-1.25,1.37-3.05,1.37-5.42c0-2.37-0.46-4.17-1.37-5.42
			c-0.91-1.25-2.13-1.87-3.65-1.87c-1.54,0-2.76,0.62-3.67,1.87c-0.91,1.25-1.37,3.05-1.37,5.42c0,2.37,0.46,4.17,1.37,5.42
			c0.91,1.25,2.14,1.87,3.67,1.87C135.9,146.97,137.11,146.34,138.03,145.1z"/>
		<path d="M156.75,132.44c1.38,1.64,2.07,3.98,2.07,6.99c0,2.11-0.38,3.92-1.12,5.41c-0.75,1.49-1.8,2.62-3.14,3.39
			c-1.35,0.77-2.91,1.15-4.7,1.15c-0.92,0-1.79-0.09-2.6-0.28c-0.81-0.19-1.52-0.46-2.11-0.83l1.03-2.11
			c0.92,0.6,2.14,0.89,3.66,0.89c1.97,0,3.51-0.61,4.62-1.83c1.11-1.22,1.67-2.99,1.67-5.33v-0.68c-0.54,0.81-1.29,1.43-2.25,1.86
			c-0.96,0.42-2.03,0.64-3.23,0.64c-1.25,0-2.36-0.23-3.35-0.7c-0.99-0.47-1.75-1.14-2.3-2.02c-0.55-0.88-0.83-1.88-0.83-3.02
			c0-1.19,0.29-2.24,0.88-3.14c0.59-0.9,1.39-1.6,2.4-2.1c1.01-0.5,2.15-0.75,3.42-0.75C153.41,129.97,155.37,130.79,156.75,132.44z
			 M153.38,139.02c0.67-0.33,1.19-0.77,1.56-1.33c0.37-0.56,0.56-1.18,0.56-1.87c0-0.67-0.18-1.28-0.53-1.83
			c-0.35-0.55-0.87-0.99-1.54-1.33c-0.68-0.33-1.5-0.5-2.45-0.5c-1.25,0-2.25,0.33-3.02,1c-0.77,0.67-1.15,1.56-1.15,2.68
			c0,1.12,0.39,2.01,1.17,2.67c0.78,0.66,1.82,0.99,3.14,0.99C151.95,139.51,152.71,139.35,153.38,139.02z"/>
		<path d="M172.83,139.28c1.27,1.02,1.91,2.42,1.91,4.19c0,1.12-0.27,2.13-0.8,3.02c-0.53,0.89-1.34,1.6-2.41,2.11
			c-1.08,0.52-2.4,0.77-3.97,0.77c-1.34,0-2.63-0.2-3.88-0.61c-1.25-0.41-2.28-0.97-3.09-1.69l1.25-2.14
			c0.65,0.61,1.48,1.11,2.49,1.48c1.01,0.37,2.08,0.56,3.2,0.56c1.43,0,2.53-0.3,3.32-0.91c0.79-0.6,1.18-1.43,1.18-2.48
			c0-1.14-0.43-2-1.3-2.59c-0.87-0.59-2.35-0.88-4.44-0.88h-4.31l1-9.92h10.71v2.36h-8.43l-0.51,5.2h2.11
			C169.56,137.75,171.55,138.26,172.83,139.28z"/>
		<path d="M188.25,139.28c1.27,1.02,1.91,2.42,1.91,4.19c0,1.12-0.27,2.13-0.8,3.02c-0.53,0.89-1.34,1.6-2.41,2.11
			c-1.08,0.52-2.4,0.77-3.97,0.77c-1.34,0-2.63-0.2-3.88-0.61c-1.25-0.41-2.28-0.97-3.09-1.69l1.25-2.14
			c0.65,0.61,1.48,1.11,2.49,1.48c1.01,0.37,2.08,0.56,3.2,0.56c1.43,0,2.53-0.3,3.32-0.91c0.79-0.6,1.18-1.43,1.18-2.48
			c0-1.14-0.43-2-1.3-2.59c-0.87-0.59-2.35-0.88-4.44-0.88h-4.31l1-9.92h10.71v2.36h-8.43l-0.51,5.2h2.11
			C184.98,137.75,186.97,138.26,188.25,139.28z"/>
		<path d="M198.29,130.19v18.97h-2.68v-16.61h-4.28v-2.36H198.29z"/>
	</g>
	<g class="st8">
		<path d="M102.53,207.46l-0.65,5.26h3.77v1.98h-4.01l-0.6,4.88h-1.92l0.6-4.88h-5.12l-0.6,4.88h-1.92l0.6-4.88h-3.74v-1.98h3.98
			l0.68-5.26H89.8v-1.98h4.04l0.6-4.88h1.92l-0.6,4.88h5.1l0.6-4.88h1.92l-0.6,4.88h3.74v1.98H102.53z M100.61,207.46h-5.1
			l-0.68,5.26h5.12L100.61,207.46z"/>
		<path d="M114.43,200.6v18.97h-2.68v-16.61h-4.28v-2.36H114.43z"/>
		<path d="M131.91,217.22v2.36h-13.63v-1.84l7.72-7.45c0.94-0.9,1.57-1.68,1.9-2.34c0.33-0.66,0.49-1.32,0.49-1.99
			c0-0.99-0.35-1.77-1.04-2.32c-0.7-0.55-1.69-0.83-2.99-0.83c-2.1,0-3.71,0.69-4.85,2.06l-1.84-1.6c0.74-0.9,1.71-1.61,2.91-2.11
			c1.2-0.51,2.54-0.76,4.02-0.76c1.99,0,3.57,0.47,4.74,1.42c1.17,0.95,1.76,2.24,1.76,3.86c0,1.01-0.22,1.97-0.65,2.87
			c-0.43,0.9-1.26,1.93-2.47,3.09l-5.8,5.58H131.91z"/>
		<path d="M140.02,200.6v18.97h-2.68v-16.61h-4.28v-2.36H140.02z"/>
		<path d="M157.5,217.22v2.36h-13.63v-1.84l7.72-7.45c0.94-0.9,1.57-1.68,1.9-2.34c0.33-0.66,0.49-1.32,0.49-1.99
			c0-0.99-0.35-1.77-1.04-2.32c-0.7-0.55-1.69-0.83-2.99-0.83c-2.1,0-3.71,0.69-4.85,2.06l-1.84-1.6c0.74-0.9,1.71-1.61,2.91-2.11
			c1.2-0.51,2.54-0.76,4.02-0.76c1.99,0,3.57,0.47,4.74,1.42c1.17,0.95,1.76,2.24,1.76,3.86c0,1.01-0.22,1.97-0.65,2.87
			c-0.43,0.9-1.26,1.93-2.47,3.09l-5.8,5.58H157.5z"/>
		<path d="M165.6,200.6v18.97h-2.68v-16.61h-4.28v-2.36H165.6z"/>
		<path d="M183.08,217.22v2.36h-13.63v-1.84l7.72-7.45c0.94-0.9,1.57-1.68,1.9-2.34c0.33-0.66,0.49-1.32,0.49-1.99
			c0-0.99-0.35-1.77-1.04-2.32c-0.7-0.55-1.69-0.83-2.99-0.83c-2.1,0-3.71,0.69-4.85,2.06l-1.84-1.6c0.74-0.9,1.71-1.61,2.91-2.11
			c1.2-0.51,2.54-0.76,4.02-0.76c1.99,0,3.57,0.47,4.74,1.42c1.17,0.95,1.76,2.24,1.76,3.86c0,1.01-0.22,1.97-0.65,2.87
			c-0.43,0.9-1.26,1.93-2.47,3.09l-5.8,5.58H183.08z"/>
	</g>
</g>
</svg>
