<?xml version="1.0" standalone="no"?>
<!DOCTYPE svg PUBLIC "-//W3C//DTD SVG 20010904//EN"
 "http://www.w3.org/TR/2001/REC-SVG-20010904/DTD/svg10.dtd">
<svg version="1.0" xmlns="http://www.w3.org/2000/svg"
 width="1366.000000pt" height="1366.000000pt" viewBox="0 0 1366.000000 1366.000000"
 preserveAspectRatio="xMidYMid meet">
<metadata>
Created by potrace 1.14, written by Peter Selinger 2001-2017
</metadata>
<g transform="translate(0.000000,1366.000000) scale(0.100000,-0.100000)"
fill="#000000" stroke="none">
<path d="M6895 10325 c-60 -16 -212 -86 -665 -308 -58 -28 -107 -52 -110 -52
-3 -1 -81 -39 -175 -84 -308 -150 -390 -189 -412 -196 -13 -3 -23 -11 -23 -16
0 -5 -5 -9 -11 -9 -26 0 -277 -131 -320 -167 -78 -65 -155 -182 -175 -265 -4
-18 -9 -37 -10 -43 -8 -30 -95 -414 -100 -435 -3 -14 -7 -33 -10 -42 -3 -10
-7 -30 -10 -44 -3 -14 -12 -56 -20 -93 -9 -36 -18 -76 -20 -88 -2 -12 -9 -34
-14 -48 -5 -14 -8 -25 -5 -25 2 0 -1 -15 -6 -32 -5 -18 -12 -46 -15 -63 -3
-16 -9 -46 -14 -65 -5 -19 -12 -50 -15 -69 -3 -19 -8 -38 -11 -43 -3 -5 -7
-19 -9 -31 -2 -12 -11 -56 -20 -97 -9 -41 -19 -88 -21 -103 -2 -16 -6 -33 -10
-38 -3 -5 -7 -19 -10 -32 -4 -25 -14 -67 -18 -82 -2 -5 -6 -28 -11 -50 -4 -22
-12 -48 -17 -59 -7 -12 -7 -16 0 -12 5 3 3 -13 -5 -37 -26 -74 -23 -245 6
-312 34 -78 45 -98 78 -146 20 -30 41 -59 47 -65 6 -6 22 -26 36 -44 14 -18
30 -38 35 -44 6 -6 33 -40 60 -74 28 -35 76 -96 108 -135 31 -40 61 -77 65
-82 4 -6 25 -33 47 -60 22 -28 45 -57 52 -65 44 -55 150 -188 160 -200 7 -8
59 -74 117 -147 57 -73 109 -138 116 -145 6 -7 62 -77 124 -156 63 -78 132
-158 153 -178 43 -39 182 -111 234 -120 19 -4 437 -8 929 -10 984 -3 972 -4
1098 57 67 32 166 121 233 209 18 25 38 50 44 56 5 6 102 127 215 269 113 142
210 263 215 270 6 6 26 31 45 55 43 56 39 51 106 135 30 39 63 79 72 90 10 11
40 49 67 85 27 36 54 70 60 76 6 6 28 34 50 62 21 29 43 52 47 52 4 0 8 6 8
13 0 8 11 24 24 37 22 20 100 134 102 149 0 3 6 20 13 36 7 17 15 39 17 50 24
124 24 170 -1 279 -8 39 -17 80 -20 91 -9 43 -36 161 -40 175 -2 8 -11 49 -20
90 -20 93 -21 95 -35 150 -6 25 -12 54 -14 65 -1 11 -6 29 -9 40 -3 11 -8 32
-11 47 -2 15 -14 67 -26 115 -19 80 -26 110 -35 153 -2 8 -8 35 -15 60 -6 25
-13 56 -15 70 -2 14 -6 34 -9 45 -20 82 -48 204 -52 224 -3 12 -12 53 -20 90
-9 36 -17 73 -19 81 -15 70 -36 150 -46 175 -7 17 -13 32 -13 35 -1 3 -13 26
-28 52 -39 65 -121 153 -163 172 -19 9 -35 21 -35 26 0 6 -6 10 -13 10 -7 0
-60 23 -117 52 -58 28 -107 52 -110 53 -3 1 -61 29 -130 62 -69 33 -188 91
-265 128 -77 37 -201 96 -275 132 -74 36 -193 94 -265 128 -71 34 -191 92
-266 128 -75 36 -156 71 -180 78 -62 17 -214 19 -274 4z"/>
<path d="M3992 5499 c-16 -6 -17 -40 -16 -408 0 -220 -2 -401 -4 -401 -2 0
-26 18 -52 40 -26 22 -52 40 -58 40 -6 0 -12 4 -14 8 -5 12 -145 72 -167 72
-11 0 -22 4 -25 8 -9 16 -233 22 -313 10 -273 -45 -504 -271 -574 -563 -27
-111 -29 -293 -5 -404 64 -294 294 -527 571 -578 52 -9 225 -11 270 -2 74 14
165 42 165 51 0 4 9 8 19 8 11 0 26 6 33 13 7 6 25 18 39 26 15 7 44 28 65 47
22 18 42 34 45 34 4 0 6 -29 5 -65 -1 -36 1 -69 4 -75 5 -8 107 -13 240 -11
l55 1 -1 1073 c-1 589 -2 1074 -3 1077 -2 7 -259 6 -279 -1z m-363 -933 c41
-9 111 -40 111 -48 0 -5 6 -8 13 -8 14 0 127 -107 127 -120 0 -5 6 -15 14 -22
17 -18 49 -78 40 -78 -4 0 -2 -6 4 -13 18 -21 25 -66 27 -174 3 -111 -6 -158
-51 -249 -49 -100 -177 -205 -280 -230 -64 -16 -207 -12 -263 7 -131 45 -226
138 -282 274 -13 32 -14 35 -27 105 -9 48 -6 175 5 200 3 8 5 18 5 22 -1 4 6
27 15 50 54 139 193 262 325 287 46 9 177 7 217 -3z"/>
<path d="M10026 5498 c-10 -6 -13 -222 -13 -1078 l0 -1070 46 -1 c142 -2 243
0 248 4 2 3 5 168 5 366 0 207 4 361 9 361 5 0 9 -3 9 -7 0 -5 12 -21 26 -38
14 -16 42 -50 62 -75 21 -24 53 -62 72 -85 20 -22 69 -80 110 -130 41 -49 85
-101 96 -115 12 -14 41 -47 64 -75 23 -27 61 -72 85 -100 23 -27 53 -63 66
-78 l24 -29 148 1 c81 0 163 0 182 1 l36 0 -111 133 c-62 72 -126 149 -143
170 -18 21 -39 46 -47 55 -9 9 -56 65 -105 125 -49 59 -93 107 -97 107 -4 0
-8 5 -8 11 0 10 -111 144 -132 159 -7 5 219 295 270 346 6 7 12 17 12 23 0 6
4 11 8 11 4 0 26 23 47 52 22 28 44 56 50 62 6 6 28 34 50 61 22 28 42 52 45
55 30 30 91 112 86 117 -3 3 -83 5 -177 5 l-172 0 -27 -29 c-14 -15 -32 -37
-40 -49 -8 -11 -31 -41 -52 -65 -53 -65 -157 -192 -171 -209 -7 -8 -32 -40
-57 -70 -25 -30 -52 -63 -60 -73 -8 -11 -20 -24 -25 -31 -6 -6 -37 -44 -69
-83 -32 -40 -60 -73 -62 -73 -1 0 -3 300 -3 666 1 366 -2 668 -5 672 -9 8
-265 8 -280 0z"/>
<path d="M5219 4876 c-2 -2 -24 -6 -49 -9 -81 -11 -220 -61 -220 -79 0 -5 -7
-8 -15 -8 -14 0 -99 -65 -151 -117 -92 -90 -184 -265 -198 -376 -3 -18 -5 -32
-6 -32 -9 0 -14 -233 -7 -285 16 -98 20 -116 30 -129 7 -8 10 -16 8 -18 -6 -7
32 -96 70 -162 79 -136 258 -282 389 -316 14 -3 41 -10 60 -15 65 -17 205 -22
286 -10 124 19 267 84 346 158 33 31 38 22 35 -61 -1 -32 1 -61 5 -63 7 -4
125 -6 259 -4 l36 0 0 745 0 745 -26 1 c-100 2 -264 -1 -269 -6 -3 -3 -5 -37
-4 -75 1 -41 -2 -70 -8 -70 -6 0 -10 4 -10 8 0 4 -18 19 -40 32 -22 14 -40 28
-40 33 0 4 -5 7 -12 7 -6 0 -19 6 -27 13 -21 18 -113 56 -176 74 -45 13 -256
28 -266 19z m231 -311 c26 -7 72 -26 101 -41 56 -31 154 -123 164 -155 4 -10
11 -19 16 -19 5 0 9 -7 9 -15 0 -9 7 -29 15 -44 34 -67 45 -235 20 -331 -40
-154 -149 -277 -292 -327 -51 -18 -213 -24 -268 -10 -106 26 -231 129 -284
235 -17 34 -29 62 -26 62 3 0 1 10 -6 21 -16 32 -32 219 -18 219 3 0 5 10 4
23 -2 29 29 120 59 171 42 71 120 144 196 184 73 39 218 51 310 27z"/>
<path d="M7147 4874 c-2 -2 -17 -5 -33 -7 -44 -5 -137 -38 -156 -55 -10 -8
-18 -12 -18 -9 0 21 -124 -91 -170 -153 -19 -25 -19 -25 -19 79 0 57 -2 106
-5 109 -4 4 -203 6 -277 3 -14 -1 -16 -72 -16 -746 l0 -745 26 -1 c61 -2 266
2 269 6 2 2 4 203 4 448 -1 247 4 464 9 488 16 73 46 125 105 184 85 85 172
119 300 117 137 -1 266 -79 326 -195 43 -84 46 -124 47 -593 0 -246 3 -449 5
-451 3 -3 69 -5 148 -6 l143 0 0 524 c0 394 -3 536 -13 572 -34 128 -110 240
-217 323 -44 33 -125 77 -125 68 0 -4 -6 -2 -13 4 -7 6 -25 13 -40 16 -15 2
-32 8 -38 12 -12 7 -235 15 -242 8z"/>
<path d="M8758 4875 c-2 -2 -20 -6 -42 -9 -21 -4 -41 -8 -45 -11 -4 -2 -19 -6
-33 -9 -34 -6 -132 -53 -184 -88 -58 -39 -157 -140 -199 -204 -65 -98 -106
-209 -122 -334 -12 -85 -5 -310 10 -310 4 0 7 -10 7 -23 0 -47 91 -257 111
-257 5 0 9 -4 9 -10 0 -27 133 -158 206 -203 201 -124 472 -140 689 -41 51 23
122 70 158 102 15 14 28 24 28 21 1 -2 2 -34 3 -71 1 -37 5 -70 8 -74 4 -3 24
-6 45 -6 21 0 85 1 143 1 l106 1 -1 739 c0 407 -3 742 -7 746 -4 4 -70 8 -148
9 -159 1 -143 12 -142 -96 0 -32 -2 -58 -5 -58 -3 0 -27 18 -53 40 -26 22 -51
40 -56 40 -4 0 -15 6 -23 13 -20 17 -131 62 -191 78 -39 10 -264 22 -272 14z
m279 -317 c80 -29 213 -127 213 -158 0 -5 4 -10 9 -10 13 0 67 -118 81 -179
15 -63 9 -230 -10 -276 -41 -97 -67 -140 -119 -192 -89 -91 -186 -131 -315
-131 -109 0 -185 23 -260 78 -40 29 -126 122 -126 136 0 8 -3 14 -8 14 -9 0
-49 102 -57 145 -8 40 -8 149 -1 204 22 172 175 341 341 380 58 13 203 6 252
-11z"/>
</g>
</svg>
